<?xml version="1.0" encoding="UTF-8" standalone="no"?><!DOCTYPE svg PUBLIC "-//W3C//DTD SVG 1.1//EN" "http://www.w3.org/Graphics/SVG/1.1/DTD/svg11.dtd"><svg width="100%" height="100%" viewBox="0 0 1250 1250" version="1.1" xmlns="http://www.w3.org/2000/svg" xmlns:xlink="http://www.w3.org/1999/xlink" xml:space="preserve" xmlns:serif="http://www.serif.com/" style="fill-rule:evenodd;clip-rule:evenodd;"><g id="g3152"><g id="g49864"><path id="path2996" d="M619.5,1236.625c-5.583,-14.125 -52.333,-125.958 -89.958,-215.292c-8.167,-19.375 -17.5,-42.125 -20.792,-50.542l-5.917,-15.333l14.75,-36.083c8.125,-19.833 33.333,-80.333 56.042,-134.458c22.708,-54.125 43.708,-104.792 46.667,-112.583c6.5,-17.125 4.167,-20.542 32.417,47.417c11.875,28.583 36.542,87.625 54.792,131.25c18.292,43.625 35.583,85.167 38.375,92.333l5.167,13.042l-16.125,38.375c-8.875,21.083 -21.833,52.208 -28.833,69.167c-7,16.958 -21.333,51.333 -31.792,76.375c-10.5,25.042 -24.833,59.417 -31.833,76.375c-7.042,16.958 -13.708,31.875 -14.792,33.167c-1.125,1.292 -4.792,-4.667 -8.167,-13.208Zm-435.208,-182.375c5.417,-13.917 95.333,-229.875 120.375,-289.042c0.833,-1.958 4.375,-4.417 7.875,-5.458c3.5,-1.083 15.042,-5.583 25.583,-10c10.542,-4.458 45.792,-19 78.292,-32.25c70.792,-28.958 110.208,-45.208 153.333,-63.167c17.708,-7.417 32.625,-13 33.208,-12.458c0.792,0.833 -50.875,128.417 -60.917,150.375c-2.708,5.958 -8.833,20.583 -42.208,100.917l-18.75,45.125l-78.125,32.167c-92.292,38 -99.75,41.042 -120.958,49.375c-8.958,3.5 -20.25,8.167 -25.125,10.375c-8.75,3.917 -55.917,23.208 -68.583,28.042c-5.833,2.25 -6.25,1.833 -4,-4Zm871.792,2c-5.708,-2.5 -34.292,-14.208 -63.542,-26.083c-29.25,-11.833 -66.458,-27.083 -82.708,-33.833c-16.25,-6.708 -40.875,-16.833 -54.667,-22.458c-80.25,-32.583 -88,-36.375 -91.208,-44.458c-1.708,-4.375 -14.625,-35.667 -28.625,-69.625c-25.458,-61.583 -39.125,-94.667 -64.292,-155.667c-7.333,-17.75 -16.125,-38.75 -19.542,-46.667c-3.458,-7.875 -5.792,-14.833 -5.208,-15.375c0.583,-0.583 42.167,15.917 92.417,36.667c50.25,20.792 115.292,47.417 144.542,59.25c29.25,11.833 55.458,23.583 58.25,26.125c4.625,4.25 10.833,17.917 39.25,86.875c5.333,12.917 17.958,43.333 28.042,67.542c10.042,24.25 25.375,61.25 34.042,82.25c8.667,21 17.875,43.125 20.458,49.167c2.583,6.083 4.333,11 3.917,10.917c-0.458,-0.083 -5.458,-2.125 -11.125,-4.625Zm-907.583,-370.625c-80.708,-33.458 -147.542,-61.583 -148.458,-62.542c-0.958,-0.958 21.208,-11.042 49.25,-22.458c94.375,-38.375 124.833,-50.875 133.708,-54.833c4.875,-2.208 24.167,-10.208 42.833,-17.792c18.708,-7.583 41.458,-17 50.625,-20.875c9.125,-3.917 17.792,-7.083 19.208,-7.083c2.458,0 48.625,18.375 95.625,38.083c12.208,5.125 40.125,16.583 62.042,25.5c21.958,8.917 48.542,19.875 59.125,24.333c10.542,4.5 32.833,13.75 49.458,20.625c26.375,10.875 36.958,17.75 27.417,17.75c-1.542,0 -15.167,5.167 -30.25,11.542c-15.083,6.333 -51.375,21.417 -80.625,33.458c-29.25,12.083 -81.083,33.458 -115.208,47.542c-34.125,14.083 -63.375,26.042 -65,26.583c-1.625,0.542 -69,-26.417 -149.75,-59.833Zm783.5,52.417c-10.583,-4.5 -75.708,-31.625 -144.792,-60.208c-69.042,-28.583 -126.625,-53.042 -127.958,-54.292c-2.167,-2.083 37.125,-19.125 156.042,-67.708c22.75,-9.292 57.958,-23.792 78.292,-32.208c20.292,-8.417 42.25,-17.292 48.75,-19.792l11.792,-4.5l44.333,18.292c24.375,10.042 64.917,26.792 90.125,37.208c25.167,10.417 66.375,27.333 91.583,37.583c25.167,10.292 51.792,21.292 59.083,24.5c13.083,5.708 13.167,5.875 5.917,8.792c-4.083,1.625 -24.667,10.208 -45.792,19.083c-21.125,8.833 -57.042,23.625 -79.792,32.833c-22.75,9.208 -48.667,19.875 -57.583,23.708c-32.208,13.792 -109.083,45.375 -109.917,45.167c-0.5,-0.125 -9.542,-3.917 -20.083,-8.458Zm-381.167,-157.458c-25.167,-10.458 -73.708,-30.375 -107.833,-44.292c-34.125,-13.917 -67.333,-27.583 -73.833,-30.375c-39,-16.917 -62.708,-26.458 -65.667,-26.458c-1.875,0 -4.333,-2.958 -5.458,-6.583c-1.833,-5.917 -31.292,-77.542 -63.75,-154.958c-20.292,-48.417 -55.708,-135.042 -55.708,-136.25c0,-1.083 79.792,30.75 131.458,52.5c13,5.458 54.875,22.708 93.083,38.333c38.167,15.625 70.917,29.917 72.75,31.792c1.833,1.833 22.25,48.958 45.375,104.667c23.125,55.75 50.417,121.5 60.625,146.125c10.25,24.625 17.75,44.708 16.708,44.625c-1.083,-0.083 -22.542,-8.667 -47.75,-19.125Zm100.458,16.167c0,-1.667 5.167,-15.208 11.417,-30.042c6.292,-14.875 33.083,-79.25 59.5,-143.042c26.458,-63.792 49.583,-117.583 51.375,-119.5c1.792,-1.917 21.25,-10.667 43.167,-19.5c21.958,-8.833 46.542,-18.958 54.667,-22.5c8.125,-3.542 40.042,-16.75 70.917,-29.333c30.875,-12.625 72.417,-29.583 92.333,-37.708c19.875,-8.125 36.167,-13.958 36.167,-13c0,1.833 -84.5,205.875 -109.167,263.583l-13.792,32.292l-29.375,12.125c-16.167,6.667 -55.958,22.917 -88.458,36.167c-32.5,13.25 -61.75,25.292 -65,26.792c-5.458,2.542 -67.375,28 -99.708,41.042c-8,3.25 -14.042,4.375 -14.042,2.625Zm-35.375,-31.167c-5.25,-12.625 -27.5,-65.917 -49.417,-118.417c-21.958,-52.5 -45.083,-107.917 -51.417,-123.083c-6.333,-15.208 -11.5,-29.125 -11.5,-30.958c0,-1.833 7.792,-21.792 17.333,-44.333c9.5,-22.542 37.042,-88.25 61.167,-145.958c24.125,-57.75 44.75,-104 45.833,-102.792c1.042,1.167 14.25,31.875 29.292,68.25c15.042,36.333 42.375,101.917 60.708,145.75l33.375,79.667l-35.458,84.792c-19.458,46.667 -39.833,95.375 -45.25,108.292c-5.417,12.958 -16.75,40.042 -25.208,60.208c-8.417,20.208 -16.375,37.833 -17.625,39.167c-1.25,1.333 -6.583,-7.917 -11.833,-20.583Z" style="fill:#5eb0e8;fill-rule:nonzero;"/></g><clipPath id="_clip1"><rect x="350.007" y="350.014" width="550" height="550"/></clipPath><g clip-path="url(#_clip1)"><g id="sun"><g id="rays-16"><g id="rays-8"><g id="rays-4"><g id="rays-2"><path d="M611.671,625.014l10.007,265.833c0,0 0,4.998 3.328,4.998c3.328,0 3.328,-4.998 3.328,-4.998l10.007,-265.833" style="fill:#fcbf49;fill-rule:nonzero;stroke:#843511;stroke-width:2.51px;"/><path d="M618.339,625.014l6.668,182.504l6.668,-182.504" style="fill:#843511;fill-rule:nonzero;"/><g><path d="M599.886,710.897c-15.311,33.447 -2.172,60.784 -17.46,89.986c-15.3,29.213 -5.74,53.265 -6.766,66.666c-1.026,13.39 -11.982,17.122 -9.21,20.232c2.761,3.11 14.219,-3.056 18.693,-20.854c4.474,-17.799 -6.198,-28.057 12.146,-63.861c18.344,-35.815 3.765,-51.966 22.175,-83.93" style="fill:#fcbf49;fill-rule:nonzero;stroke:#843511;stroke-width:2.51px;"/><path d="M604.098,719.409c-11.873,33.295 0.633,55.404 -15.311,83.624c17.722,-20.21 6.035,-46.39 21.509,-80.667" style="fill:#843511;fill-rule:nonzero;"/></g></g><g id="rays-21" serif:id="rays-2"><path d="M638.342,625.014l-10.007,-265.833c0,0 0,-4.998 -3.328,-4.998c-3.328,0 -3.328,4.998 -3.328,4.998l-10.007,265.833" style="fill:#fcbf49;fill-rule:nonzero;stroke:#843511;stroke-width:2.51px;"/><path d="M631.674,625.014l-6.668,-182.504l-6.668,182.504" style="fill:#843511;fill-rule:nonzero;"/><g><path d="M650.128,539.131c15.311,-33.447 2.172,-60.784 17.46,-89.986c15.3,-29.213 5.74,-53.265 6.766,-66.666c1.026,-13.39 11.982,-17.122 9.21,-20.232c-2.761,-3.11 -14.219,3.056 -18.693,20.854c-4.474,17.799 6.198,28.057 -12.146,63.861c-18.344,35.815 -3.765,51.966 -22.175,83.93" style="fill:#fcbf49;fill-rule:nonzero;stroke:#843511;stroke-width:2.51px;"/><path d="M645.915,530.619c11.873,-33.295 -0.633,-55.404 15.311,-83.624c-17.722,20.21 -6.035,46.39 -21.509,80.667" style="fill:#843511;fill-rule:nonzero;"/></g></g></g><g id="rays-41" serif:id="rays-4"><g id="rays-22" serif:id="rays-2"><path d="M625.007,611.679l-265.833,10.007c0,0 -4.998,0 -4.998,3.328c0,3.328 4.998,3.328 4.998,3.328l265.833,10.007" style="fill:#fcbf49;fill-rule:nonzero;stroke:#843511;stroke-width:2.51px;"/><path d="M625.007,618.346l-182.504,6.668l182.504,6.668" style="fill:#843511;fill-rule:nonzero;"/><g><path d="M539.124,599.893c-33.447,-15.311 -60.784,-2.172 -89.986,-17.46c-29.213,-15.3 -53.265,-5.74 -66.666,-6.766c-13.39,-1.026 -17.122,-11.982 -20.232,-9.21c-3.11,2.761 3.056,14.219 20.854,18.693c17.799,4.474 28.057,-6.198 63.861,12.146c35.815,18.344 51.966,3.765 83.93,22.175" style="fill:#fcbf49;fill-rule:nonzero;stroke:#843511;stroke-width:2.51px;"/><path d="M530.612,604.105c-33.295,-11.873 -55.404,0.633 -83.624,-15.311c20.21,17.722 46.39,6.035 80.667,21.509" style="fill:#843511;fill-rule:nonzero;"/></g></g><g id="rays-23" serif:id="rays-2"><path d="M625.007,638.349l265.833,-10.007c0,0 4.998,0 4.998,-3.328c0,-3.328 -4.998,-3.328 -4.998,-3.328l-265.833,-10.007" style="fill:#fcbf49;fill-rule:nonzero;stroke:#843511;stroke-width:2.51px;"/><path d="M625.007,631.682l182.504,-6.668l-182.504,-6.668" style="fill:#843511;fill-rule:nonzero;"/><g><path d="M710.89,650.135c33.447,15.311 60.784,2.172 89.986,17.46c29.213,15.3 53.265,5.74 66.666,6.766c13.39,1.026 17.122,11.982 20.232,9.21c3.11,-2.761 -3.056,-14.219 -20.854,-18.693c-17.799,-4.474 -28.057,6.198 -63.861,-12.146c-35.815,-18.344 -51.966,-3.765 -83.93,-22.175" style="fill:#fcbf49;fill-rule:nonzero;stroke:#843511;stroke-width:2.51px;"/><path d="M719.402,645.923c33.295,11.873 55.404,-0.633 83.624,15.311c-20.21,-17.722 -46.39,-6.035 -80.667,-21.509" style="fill:#843511;fill-rule:nonzero;"/></g></g></g></g><g id="rays-81" serif:id="rays-8"><g id="rays-42" serif:id="rays-4"><g id="rays-24" serif:id="rays-2"><path d="M615.578,615.585l-180.9,195.043c0,0 -3.536,3.536 -1.179,5.893c2.357,2.357 5.893,-1.179 5.893,-1.179l195.043,-180.9" style="fill:#fcbf49;fill-rule:nonzero;stroke:#843511;stroke-width:2.51px;"/><path d="M620.292,620.3l-124.328,133.757l133.757,-124.328" style="fill:#843511;fill-rule:nonzero;"/><g><path d="M546.512,667.977c-34.484,12.822 -44.513,41.457 -75.974,51.29c-31.472,9.832 -41.719,33.6 -51.923,42.352c-10.192,8.752 -20.581,3.634 -20.821,7.792c-0.251,4.158 12.222,7.901 27.969,-1.528c15.747,-9.429 15.452,-24.215 53.745,-36.568c38.293,-12.353 39.406,-34.08 75.025,-43.673" style="fill:#fcbf49;fill-rule:nonzero;stroke:#843511;stroke-width:2.51px;"/><path d="M543.478,676.98c-31.941,15.147 -38.729,39.624 -69.961,48.3c26.812,-1.757 37.07,-28.537 72.253,-41.817" style="fill:#843511;fill-rule:nonzero;"/></g></g><g id="rays-25" serif:id="rays-2"><path d="M634.435,634.443l180.9,-195.043c0,0 3.536,-3.536 1.179,-5.893c-2.357,-2.357 -5.893,1.179 -5.893,1.179l-195.043,180.9" style="fill:#fcbf49;fill-rule:nonzero;stroke:#843511;stroke-width:2.51px;"/><path d="M629.721,629.728l124.328,-133.757l-133.757,124.328" style="fill:#843511;fill-rule:nonzero;"/><g><path d="M703.502,582.051c34.484,-12.822 44.513,-41.457 75.974,-51.29c31.472,-9.832 41.719,-33.6 51.923,-42.352c10.192,-8.752 20.581,-3.634 20.821,-7.792c0.251,-4.158 -12.222,-7.901 -27.969,1.528c-15.747,9.429 -15.452,24.215 -53.745,36.568c-38.293,12.353 -39.406,34.08 -75.025,43.673" style="fill:#fcbf49;fill-rule:nonzero;stroke:#843511;stroke-width:2.51px;"/><path d="M706.535,573.048c31.941,-15.147 38.729,-39.624 69.961,-48.3c-26.812,1.757 -37.07,28.537 -72.253,41.817" style="fill:#843511;fill-rule:nonzero;"/></g></g></g><g id="rays-43" serif:id="rays-4"><g id="rays-26" serif:id="rays-2"><path d="M634.435,615.585l-195.043,-180.9c0,0 -3.536,-3.536 -5.893,-1.179c-2.357,2.357 1.179,5.893 1.179,5.893l180.9,195.043" style="fill:#fcbf49;fill-rule:nonzero;stroke:#843511;stroke-width:2.51px;"/><path d="M629.721,620.3l-133.757,-124.328l124.328,133.757" style="fill:#843511;fill-rule:nonzero;"/><g><path d="M582.043,546.519c-12.822,-34.484 -41.457,-44.513 -51.29,-75.974c-9.832,-31.472 -33.6,-41.719 -42.352,-51.923c-8.752,-10.192 -3.634,-20.581 -7.792,-20.821c-4.158,-0.251 -7.901,12.222 1.528,27.969c9.429,15.747 24.215,15.452 36.568,53.745c12.353,38.293 34.08,39.406 43.673,75.025" style="fill:#fcbf49;fill-rule:nonzero;stroke:#843511;stroke-width:2.51px;"/><path d="M573.04,543.485c-15.147,-31.941 -39.624,-38.729 -48.3,-69.961c1.757,26.812 28.537,37.07 41.817,72.253" style="fill:#843511;fill-rule:nonzero;"/></g></g><g id="rays-27" serif:id="rays-2"><path d="M615.578,634.443l195.043,180.9c0,0 3.536,3.536 5.893,1.179c2.357,-2.357 -1.179,-5.893 -1.179,-5.893l-180.9,-195.043" style="fill:#fcbf49;fill-rule:nonzero;stroke:#843511;stroke-width:2.51px;"/><path d="M620.292,629.728l133.757,124.328l-124.328,-133.757" style="fill:#843511;fill-rule:nonzero;"/><g><path d="M667.97,703.509c12.822,34.484 41.457,44.513 51.29,75.974c9.832,31.472 33.6,41.719 42.352,51.923c8.752,10.192 3.634,20.581 7.792,20.821c4.158,0.251 7.901,-12.222 -1.528,-27.969c-9.429,-15.747 -24.215,-15.452 -36.568,-53.745c-12.353,-38.293 -34.08,-39.406 -43.673,-75.025" style="fill:#fcbf49;fill-rule:nonzero;stroke:#843511;stroke-width:2.51px;"/><path d="M676.973,706.543c15.147,31.941 39.624,38.729 48.3,69.961c-1.757,-26.812 -28.537,-37.07 -41.817,-72.253" style="fill:#843511;fill-rule:nonzero;"/></g></g></g></g></g><g id="rays-161" serif:id="rays-16"><g id="rays-82" serif:id="rays-8"><g id="rays-44" serif:id="rays-4"><g id="rays-28" serif:id="rays-2"><path d="M612.686,619.907l-92.485,249.432c0,0 -1.921,4.616 1.157,5.893c3.088,1.277 4.998,-3.339 4.998,-3.339l110.971,-241.771" style="fill:#fcbf49;fill-rule:nonzero;stroke:#843511;stroke-width:2.51px;"/><path d="M618.852,622.46l-63.687,171.166l75.996,-166.059" style="fill:#843511;fill-rule:nonzero;"/><g><path d="M568.926,694.746c-26.943,25.045 -25.263,55.327 -50.569,76.454c-25.307,21.127 -25.678,47.012 -31.745,59.005c-6.078,11.982 -17.635,11.229 -16.271,15.158c1.375,3.939 14.317,2.619 25.263,-12.113c10.945,-14.732 5.009,-28.286 35.652,-54.345c30.654,-26.07 23.375,-46.564 52.61,-69.056" style="fill:#fcbf49;fill-rule:nonzero;stroke:#843511;stroke-width:2.51px;"/><path d="M569.57,704.218c-23.713,26.223 -20.614,51.432 -46.15,71.402c24.106,-11.884 23.331,-40.552 50.744,-66.284" style="fill:#843511;fill-rule:nonzero;"/></g></g><g id="rays-29" serif:id="rays-2"><path d="M637.327,630.121l92.485,-249.432c0,0 1.921,-4.616 -1.157,-5.893c-3.088,-1.277 -4.998,3.339 -4.998,3.339l-110.971,241.771" style="fill:#fcbf49;fill-rule:nonzero;stroke:#843511;stroke-width:2.51px;"/><path d="M631.161,627.568l63.687,-171.166l-75.996,166.059" style="fill:#843511;fill-rule:nonzero;"/><g><path d="M681.087,555.282c26.943,-25.045 25.263,-55.327 50.569,-76.454c25.307,-21.127 25.678,-47.012 31.745,-59.005c6.078,-11.982 17.635,-11.229 16.271,-15.158c-1.375,-3.939 -14.317,-2.619 -25.263,12.113c-10.945,14.732 -5.009,28.286 -35.652,54.345c-30.654,26.07 -23.375,46.564 -52.61,69.056" style="fill:#fcbf49;fill-rule:nonzero;stroke:#843511;stroke-width:2.51px;"/><path d="M680.443,545.81c23.713,-26.223 20.614,-51.432 46.15,-71.402c-24.106,11.884 -23.331,40.552 -50.744,66.284" style="fill:#843511;fill-rule:nonzero;"/></g></g></g><g id="rays-45" serif:id="rays-4"><g id="rays-210" serif:id="rays-2"><path d="M630.114,612.694l-249.432,-92.485c0,0 -4.616,-1.921 -5.893,1.157c-1.277,3.088 3.339,4.998 3.339,4.998l241.771,110.971" style="fill:#fcbf49;fill-rule:nonzero;stroke:#843511;stroke-width:2.51px;"/><path d="M627.56,618.859l-171.166,-63.687l166.059,75.996" style="fill:#843511;fill-rule:nonzero;"/><g><path d="M555.275,568.934c-25.045,-26.943 -55.327,-25.263 -76.454,-50.569c-21.127,-25.307 -47.012,-25.678 -59.005,-31.745c-11.982,-6.078 -11.229,-17.635 -15.158,-16.271c-3.939,1.375 -2.619,14.317 12.113,25.263c14.732,10.945 28.286,5.009 54.345,35.652c26.07,30.654 46.564,23.375 69.056,52.61" style="fill:#fcbf49;fill-rule:nonzero;stroke:#843511;stroke-width:2.51px;"/><path d="M545.802,569.577c-26.223,-23.713 -51.432,-20.614 -71.402,-46.15c11.884,24.106 40.552,23.331 66.284,50.744" style="fill:#843511;fill-rule:nonzero;"/></g></g><g id="rays-211" serif:id="rays-2"><path d="M619.9,637.334l249.432,92.485c0,0 4.616,1.921 5.893,-1.157c1.277,-3.088 -3.339,-4.998 -3.339,-4.998l-241.771,-110.971" style="fill:#fcbf49;fill-rule:nonzero;stroke:#843511;stroke-width:2.51px;"/><path d="M622.453,631.169l171.166,63.687l-166.059,-75.996" style="fill:#843511;fill-rule:nonzero;"/><g><path d="M694.739,681.094c25.045,26.943 55.327,25.263 76.454,50.569c21.127,25.307 47.012,25.678 59.005,31.745c11.982,6.078 11.229,17.635 15.158,16.271c3.939,-1.375 2.619,-14.317 -12.113,-25.263c-14.732,-10.945 -28.286,-5.009 -54.345,-35.652c-26.07,-30.654 -46.564,-23.375 -69.056,-52.61" style="fill:#fcbf49;fill-rule:nonzero;stroke:#843511;stroke-width:2.51px;"/><path d="M704.211,680.45c26.223,23.713 51.432,20.614 71.402,46.15c-11.884,-24.106 -40.552,-23.331 -66.284,-50.744" style="fill:#843511;fill-rule:nonzero;"/></g></g></g></g><g id="rays-83" serif:id="rays-8"><g id="rays-46" serif:id="rays-4"><g id="rays-212" serif:id="rays-2"><path d="M619.9,612.694l-241.771,110.971c0,0 -4.616,1.91 -3.339,4.998c1.277,3.077 5.893,1.157 5.893,1.157l249.432,-92.485" style="fill:#fcbf49;fill-rule:nonzero;stroke:#843511;stroke-width:2.51px;"/><path d="M622.453,618.859l-166.059,75.996l171.166,-63.687" style="fill:#843511;fill-rule:nonzero;"/><g><path d="M536.046,634.661c-36.765,-1.342 -56.986,21.269 -89.822,18.312c-32.836,-2.957 -51.399,15.081 -64.167,19.272c-12.779,4.18 -20.407,-4.529 -22.229,-0.775c-1.812,3.743 8.272,11.971 26.431,9.287c18.159,-2.674 23.539,-16.456 63.643,-13.215c40.104,3.241 49.445,-16.402 86.036,-11.633" style="fill:#fcbf49;fill-rule:nonzero;stroke:#843511;stroke-width:2.51px;"/><path d="M529.793,641.82c-35.303,1.779 -50.94,21.793 -83.111,17.853c25.448,8.643 45.168,-12.168 82.751,-10.989" style="fill:#843511;fill-rule:nonzero;"/></g></g><g id="rays-213" serif:id="rays-2"><path d="M630.114,637.334l241.771,-110.971c0,0 4.616,-1.91 3.339,-4.998c-1.277,-3.077 -5.893,-1.157 -5.893,-1.157l-249.432,92.485" style="fill:#fcbf49;fill-rule:nonzero;stroke:#843511;stroke-width:2.51px;"/><path d="M627.56,631.169l166.059,-75.996l-171.166,63.687" style="fill:#843511;fill-rule:nonzero;"/><g><path d="M713.967,615.367c36.765,1.342 56.986,-21.269 89.822,-18.312c32.836,2.957 51.399,-15.081 64.167,-19.272c12.779,-4.18 20.407,4.529 22.229,0.775c1.812,-3.743 -8.272,-11.971 -26.431,-9.287c-18.159,2.674 -23.539,16.456 -63.643,13.215c-40.104,-3.241 -49.445,16.402 -86.036,11.633" style="fill:#fcbf49;fill-rule:nonzero;stroke:#843511;stroke-width:2.51px;"/><path d="M720.22,608.208c35.303,-1.779 50.94,-21.793 83.111,-17.853c-25.448,-8.643 -45.168,12.168 -82.751,10.989" style="fill:#843511;fill-rule:nonzero;"/></g></g></g><g id="rays-47" serif:id="rays-4"><g id="rays-214" serif:id="rays-2"><path d="M637.327,619.907l-110.971,-241.771c0,0 -1.91,-4.616 -4.998,-3.339c-3.077,1.277 -1.157,5.893 -1.157,5.893l92.485,249.432" style="fill:#fcbf49;fill-rule:nonzero;stroke:#843511;stroke-width:2.51px;"/><path d="M631.161,622.46l-75.996,-166.059l63.687,171.166" style="fill:#843511;fill-rule:nonzero;"/><g><path d="M615.36,536.054c1.342,-36.765 -21.269,-56.986 -18.312,-89.822c2.957,-32.836 -15.081,-51.399 -19.272,-64.167c-4.18,-12.779 4.529,-20.407 0.775,-22.229c-3.743,-1.812 -11.971,8.272 -9.287,26.431c2.674,18.159 16.456,23.539 13.215,63.643c-3.241,40.104 16.402,49.445 11.633,86.036" style="fill:#fcbf49;fill-rule:nonzero;stroke:#843511;stroke-width:2.51px;"/><path d="M608.201,529.801c-1.779,-35.303 -21.793,-50.94 -17.853,-83.111c-8.643,25.448 12.168,45.168 10.989,82.751" style="fill:#843511;fill-rule:nonzero;"/></g></g><g id="rays-215" serif:id="rays-2"><path d="M612.686,630.121l110.971,241.771c0,0 1.91,4.616 4.998,3.339c3.077,-1.277 1.157,-5.893 1.157,-5.893l-92.485,-249.432" style="fill:#fcbf49;fill-rule:nonzero;stroke:#843511;stroke-width:2.51px;"/><path d="M618.852,627.568l75.996,166.059l-63.687,-171.166" style="fill:#843511;fill-rule:nonzero;"/><g><path d="M634.654,713.974c-1.342,36.765 21.269,56.986 18.312,89.822c-2.957,32.836 15.081,51.399 19.272,64.167c4.18,12.779 -4.529,20.407 -0.775,22.229c3.743,1.812 11.971,-8.272 9.287,-26.431c-2.674,-18.159 -16.456,-23.539 -13.215,-63.643c3.241,-40.104 -16.402,-49.445 -11.633,-86.036" style="fill:#fcbf49;fill-rule:nonzero;stroke:#843511;stroke-width:2.51px;"/><path d="M641.812,720.227c1.779,35.303 21.793,50.94 17.853,83.111c8.643,-25.448 -12.168,-45.168 -10.989,-82.751" style="fill:#843511;fill-rule:nonzero;"/></g></g></g></g></g><path d="M625.007,733.344c-59.911,0 -108.33,-48.42 -108.33,-108.33c0,-59.911 48.42,-108.33 108.33,-108.33c59.911,0 108.33,48.42 108.33,108.33c0,59.911 -48.42,108.33 -108.33,108.33Z" style="fill:#fcbf49;fill-rule:nonzero;stroke:#843511;stroke-width:1.64px;"/><g id="face_right"><path id="eyebrow_nose" d="M693.342,601.683c-19.174,-16.664 -43.334,-19.174 -56.67,-6.668c-2.408,3.223 -4.165,6.584 -5.271,10.083c-1.113,3.507 -1.564,7.126 -1.353,10.858c0.211,3.725 1.08,7.53 2.608,11.415c1.528,3.892 3.699,7.828 6.515,11.808c-0.829,0 -2.499,0.84 -3.328,1.67c-2.095,-3.979 -3.758,-7.992 -4.987,-12.037c-1.237,-4.038 -2.03,-8.064 -2.379,-12.08c-0.356,-4.023 -0.266,-7.992 0.273,-11.906c0.538,-3.914 1.513,-7.741 2.925,-11.48c18.333,-14.994 43.334,-16.664 61.668,8.337Z" style="fill:#843511;fill-rule:nonzero;"/><path id="uppalpebra" d="M663.343,596.685c-10.836,0 -13.335,2.499 -18.333,6.668c-4.998,4.158 -7.508,3.328 -8.337,4.158c-0.829,0.84 0,3.339 1.67,2.499c1.67,-0.829 4.998,-2.499 9.996,-6.657c4.998,-4.169 10.007,-4.169 15.005,-4.169c14.994,0 23.331,12.495 25.001,11.666c1.659,-0.84 -8.337,-14.165 -25.001,-14.165Z" style="fill:#843511;fill-rule:nonzero;"/><path id="upeyecontour" d="M682.506,610.849c-10.836,-11.666 -30.828,-12.506 -39.166,0.829l3.328,0c8.337,-13.335 28.34,-7.497 30.01,-1.67l0,1.67" style="fill:#843511;fill-rule:nonzero;"/><path id="pupil" d="M661.673,617.517c-4.147,0 -7.497,-3.35 -7.497,-7.508c0,-4.147 3.35,-7.497 7.497,-7.497c4.147,0 7.497,3.35 7.497,7.497c0,4.158 -3.35,7.508 -7.497,7.508Z" style="fill:#843511;fill-rule:nonzero;"/><path id="loweyecontour" d="M643.34,611.679c8.337,7.497 26.671,8.337 39.166,-0.829l-5.827,-0.84c-8.337,9.167 -21.673,8.337 -30.01,1.67l0,-1.67" style="fill:#843511;fill-rule:nonzero;"/><path id="lowpalpebra" d="M683.335,615.018c-14.165,10.825 -28.329,9.996 -36.667,4.998c-8.326,-4.998 -8.326,-6.668 -6.657,-6.668c1.659,0 3.328,1.67 9.996,4.998c6.668,3.339 16.664,3.339 33.327,-3.328Z" style="fill:#843511;fill-rule:nonzero;"/><path id="nose" d="M642.511,640.019c1.735,0.611 2.99,2.128 3.263,3.95c0.273,1.822 -0.469,3.656 -1.942,4.758c-1.473,1.102 -3.438,1.31 -5.107,0.535c-1.67,-0.775 -2.783,-2.412 -2.881,-4.245c-0.84,1.659 -4.169,6.668 -10.836,6.668l-1.67,0l1.67,2.499c1.67,0 6.668,0 9.996,-2.499c1.43,2.052 3.798,3.252 6.297,3.208c2.499,-0.044 4.812,-1.342 6.166,-3.448c1.353,-2.106 1.571,-4.747 0.578,-7.039c-1.004,-2.292 -3.077,-3.939 -5.533,-4.387Z" style="fill:#843511;fill-rule:nonzero;"/><path id="uplip1" d="M652.507,675.016c-7.497,-4.998 -10.836,-12.506 -19.163,-12.506c-1.67,0 -5.009,0.84 -8.337,2.499l-1.67,0l1.67,2.51c3.328,0 8.337,-4.169 14.165,-0.84c5.838,3.339 9.167,6.668 13.335,8.337Z" style="fill:#843511;fill-rule:nonzero;"/><path id="midlip" d="M650.008,675.016c-16.664,-4.998 -20.003,-1.67 -25.001,-1.67l-1.67,0l1.67,3.339c6.668,0 9.996,-5.009 25.001,-1.67Z" style="fill:#843511;fill-rule:nonzero;"/><path id="uplip2" d="M652.507,675.016c-18.333,-1.67 -12.495,9.167 -27.5,9.167l-1.67,0l1.67,2.499c18.333,0 9.996,-9.996 27.5,-11.666Z" style="fill:#843511;fill-rule:nonzero;"/><path id="chin" d="M640.012,701.676c0,-3.972 -1.582,-7.792 -4.398,-10.596c-2.815,-2.815 -6.624,-4.398 -10.607,-4.398c-3.983,0 -7.792,1.582 -10.607,4.398c-2.815,2.805 -4.398,6.624 -4.398,10.596c0.808,-3.372 2.728,-6.373 5.445,-8.534c2.717,-2.15 6.089,-3.317 9.56,-3.317c3.47,0 6.842,1.168 9.56,3.317c2.717,2.161 4.638,5.162 5.445,8.534Z" style="fill:#843511;fill-rule:nonzero;"/></g><g id="face_right1" serif:id="face_right"><path id="eyebrow_nose1" serif:id="eyebrow_nose" d="M556.671,601.683c19.174,-16.664 43.334,-19.174 56.67,-6.668c2.408,3.223 4.165,6.584 5.271,10.083c1.113,3.507 1.564,7.126 1.353,10.858c-0.211,3.725 -1.08,7.53 -2.608,11.415c-1.528,3.892 -3.699,7.828 -6.515,11.808c0.829,0 2.499,0.84 3.328,1.67c2.095,-3.979 3.758,-7.992 4.987,-12.037c1.237,-4.038 2.03,-8.064 2.379,-12.08c0.356,-4.023 0.266,-7.992 -0.273,-11.906c-0.538,-3.914 -1.513,-7.741 -2.925,-11.48c-18.333,-14.994 -43.334,-16.664 -61.668,8.337Z" style="fill:#843511;fill-rule:nonzero;"/><path id="uppalpebra1" serif:id="uppalpebra" d="M586.67,596.685c10.836,0 13.335,2.499 18.333,6.668c4.998,4.158 7.508,3.328 8.337,4.158c0.829,0.84 0,3.339 -1.67,2.499c-1.67,-0.829 -4.998,-2.499 -9.996,-6.657c-4.998,-4.169 -10.007,-4.169 -15.005,-4.169c-14.994,0 -23.331,12.495 -25.001,11.666c-1.659,-0.84 8.337,-14.165 25.001,-14.165Z" style="fill:#843511;fill-rule:nonzero;"/><path id="upeyecontour1" serif:id="upeyecontour" d="M567.508,610.849c10.836,-11.666 30.828,-12.506 39.166,0.829l-3.328,0c-8.337,-13.335 -28.34,-7.497 -30.01,-1.67l0,1.67" style="fill:#843511;fill-rule:nonzero;"/><path id="pupil1" serif:id="pupil" d="M588.34,617.517c4.147,0 7.497,-3.35 7.497,-7.508c0,-4.147 -3.35,-7.497 -7.497,-7.497c-4.147,0 -7.497,3.35 -7.497,7.497c0,4.158 3.35,7.508 7.497,7.508Z" style="fill:#843511;fill-rule:nonzero;"/><path id="loweyecontour1" serif:id="loweyecontour" d="M606.673,611.679c-8.337,7.497 -26.671,8.337 -39.166,-0.829l5.827,-0.84c8.337,9.167 21.673,8.337 30.01,1.67l0,-1.67" style="fill:#843511;fill-rule:nonzero;"/><path id="lowpalpebra1" serif:id="lowpalpebra" d="M566.678,615.018c14.165,10.825 28.329,9.996 36.667,4.998c8.326,-4.998 8.326,-6.668 6.657,-6.668c-1.659,0 -3.328,1.67 -9.996,4.998c-6.668,3.339 -16.664,3.339 -33.327,-3.328Z" style="fill:#843511;fill-rule:nonzero;"/><path id="nose1" serif:id="nose" d="M607.503,640.019c-1.735,0.611 -2.99,2.128 -3.263,3.95c-0.273,1.822 0.469,3.656 1.942,4.758c1.473,1.102 3.438,1.31 5.107,0.535c1.67,-0.775 2.783,-2.412 2.881,-4.245c0.84,1.659 4.169,6.668 10.836,6.668l1.67,0l-1.67,2.499c-1.67,0 -6.668,0 -9.996,-2.499c-1.43,2.052 -3.798,3.252 -6.297,3.208c-2.499,-0.044 -4.812,-1.342 -6.166,-3.448c-1.353,-2.106 -1.571,-4.747 -0.578,-7.039c1.004,-2.292 3.077,-3.939 5.533,-4.387Z" style="fill:#843511;fill-rule:nonzero;"/><path id="uplip11" serif:id="uplip1" d="M597.507,675.016c7.497,-4.998 10.836,-12.506 19.163,-12.506c1.67,0 5.009,0.84 8.337,2.499l1.67,0l-1.67,2.51c-3.328,0 -8.337,-4.169 -14.165,-0.84c-5.838,3.339 -9.167,6.668 -13.335,8.337Z" style="fill:#843511;fill-rule:nonzero;"/><path id="midlip1" serif:id="midlip" d="M600.006,675.016c16.664,-4.998 20.003,-1.67 25.001,-1.67l1.67,0l-1.67,3.339c-6.668,0 -9.996,-5.009 -25.001,-1.67Z" style="fill:#843511;fill-rule:nonzero;"/><path id="uplip21" serif:id="uplip2" d="M597.507,675.016c18.333,-1.67 12.495,9.167 27.5,9.167l1.67,0l-1.67,2.499c-18.333,0 -9.996,-9.996 -27.5,-11.666Z" style="fill:#843511;fill-rule:nonzero;"/><path id="chin1" serif:id="chin" d="M610.002,701.676c0,-3.972 1.582,-7.792 4.398,-10.596c2.815,-2.815 6.624,-4.398 10.607,-4.398c3.983,0 7.792,1.582 10.607,4.398c2.815,2.805 4.398,6.624 4.398,10.596c-0.808,-3.372 -2.728,-6.373 -5.445,-8.534c-2.717,-2.15 -6.089,-3.317 -9.56,-3.317c-3.47,0 -6.842,1.168 -9.56,3.317c-2.717,2.161 -4.638,5.162 -5.445,8.534Z" style="fill:#843511;fill-rule:nonzero;"/></g></g></g></g></svg>