<svg xmlns="http://www.w3.org/2000/svg" xmlns:xlink="http://www.w3.org/1999/xlink" width="464" zoomAndPan="magnify" viewBox="0 0 348 182.249993" height="243" preserveAspectRatio="xMidYMid meet" version="1.0"><defs><clipPath id="e4637918e6"><path d="M 174 10.980469 L 334 10.980469 L 334 170.820312 L 174 170.820312 Z M 174 10.980469 " clip-rule="nonzero"/></clipPath><clipPath id="be958aadf8"><path d="M 196 10.980469 L 347.285156 10.980469 L 347.285156 170.820312 L 196 170.820312 Z M 196 10.980469 " clip-rule="nonzero"/></clipPath><clipPath id="1459666475"><path d="M 219 10.980469 L 347.285156 10.980469 L 347.285156 170.820312 L 219 170.820312 Z M 219 10.980469 " clip-rule="nonzero"/></clipPath><clipPath id="579c3a45e8"><path d="M 242 10.980469 L 347.285156 10.980469 L 347.285156 170.820312 L 242 170.820312 Z M 242 10.980469 " clip-rule="nonzero"/></clipPath><clipPath id="498245c60e"><path d="M 265 10.980469 L 347.285156 10.980469 L 347.285156 170.820312 L 265 170.820312 Z M 265 10.980469 " clip-rule="nonzero"/></clipPath><clipPath id="323b0faac0"><path d="M 287 10.980469 L 347.285156 10.980469 L 347.285156 170.820312 L 287 170.820312 Z M 287 10.980469 " clip-rule="nonzero"/></clipPath><clipPath id="528ccc2ce8"><path d="M 310 10.980469 L 347.285156 10.980469 L 347.285156 170.820312 L 310 170.820312 Z M 310 10.980469 " clip-rule="nonzero"/></clipPath></defs><g clip-path="url(#e4637918e6)"><path fill="#ffb81c" d="M 253.835938 10.980469 C 275.890625 10.980469 295.777344 19.894531 310.175781 34.292969 C 324.691406 48.804688 333.605469 68.691406 333.605469 90.75 C 333.605469 112.804688 324.691406 132.691406 310.175781 147.203125 C 295.777344 161.601562 275.890625 170.515625 253.835938 170.515625 C 231.777344 170.515625 211.894531 161.601562 197.378906 147.203125 C 182.980469 132.691406 174.066406 112.804688 174.066406 90.75 C 174.066406 68.691406 182.980469 48.804688 197.378906 34.292969 C 211.894531 19.894531 231.777344 10.980469 253.835938 10.980469 Z M 309.605469 34.976562 C 295.320312 20.691406 275.664062 11.894531 253.835938 11.894531 C 232.007812 11.894531 212.351562 20.691406 198.0625 34.976562 C 183.777344 49.261719 174.863281 68.921875 174.863281 90.75 C 174.863281 112.574219 183.777344 132.234375 198.0625 146.519531 C 212.351562 160.804688 232.007812 169.601562 253.835938 169.601562 C 275.664062 169.601562 295.320312 160.804688 309.605469 146.519531 C 323.890625 132.234375 332.691406 112.574219 332.691406 90.75 C 332.691406 68.921875 323.890625 49.261719 309.605469 34.976562 Z M 309.605469 34.976562 " fill-opacity="1" fill-rule="nonzero"/></g><g clip-path="url(#be958aadf8)"><path fill="#ffb81c" d="M 276.578125 10.980469 C 298.632812 10.980469 318.519531 19.894531 332.917969 34.292969 C 347.433594 48.804688 356.347656 68.691406 356.347656 90.75 C 356.347656 112.804688 347.433594 132.691406 332.917969 147.203125 C 318.519531 161.601562 298.632812 170.515625 276.578125 170.515625 C 254.519531 170.515625 234.636719 161.601562 220.121094 147.203125 C 205.722656 132.691406 196.808594 112.804688 196.808594 90.75 C 196.808594 68.691406 205.722656 48.804688 220.121094 34.292969 C 234.636719 19.894531 254.519531 10.980469 276.578125 10.980469 Z M 332.347656 34.976562 C 318.0625 20.691406 298.40625 11.894531 276.578125 11.894531 C 254.75 11.894531 235.09375 20.691406 220.808594 34.976562 C 206.519531 49.261719 197.605469 68.921875 197.605469 90.75 C 197.605469 112.574219 206.519531 132.234375 220.808594 146.519531 C 235.09375 160.804688 254.75 169.601562 276.578125 169.601562 C 298.40625 169.601562 318.0625 160.804688 332.347656 146.519531 C 346.632812 132.234375 355.433594 112.574219 355.433594 90.75 C 355.433594 68.921875 346.632812 49.261719 332.347656 34.976562 Z M 332.347656 34.976562 " fill-opacity="1" fill-rule="nonzero"/></g><g clip-path="url(#1459666475)"><path fill="#ffb81c" d="M 299.320312 10.980469 C 321.375 10.980469 341.261719 19.894531 355.660156 34.292969 C 370.175781 48.804688 379.089844 68.691406 379.089844 90.75 C 379.089844 112.804688 370.175781 132.691406 355.660156 147.203125 C 341.261719 161.601562 321.375 170.515625 299.320312 170.515625 C 277.261719 170.515625 257.378906 161.601562 242.863281 147.203125 C 228.464844 132.691406 219.550781 112.804688 219.550781 90.75 C 219.550781 68.691406 228.464844 48.804688 242.863281 34.292969 C 257.378906 19.894531 277.261719 10.980469 299.320312 10.980469 Z M 355.089844 34.976562 C 340.804688 20.691406 321.03125 11.894531 299.320312 11.894531 C 277.492188 11.894531 257.835938 20.691406 243.550781 34.976562 C 229.261719 49.261719 220.347656 68.921875 220.347656 90.75 C 220.347656 112.574219 229.261719 132.234375 243.550781 146.519531 C 257.835938 160.804688 277.492188 169.601562 299.320312 169.601562 C 321.03125 169.601562 340.804688 160.804688 355.089844 146.519531 C 369.375 132.234375 378.175781 112.574219 378.175781 90.75 C 378.175781 68.921875 369.375 49.261719 355.089844 34.976562 Z M 355.089844 34.976562 " fill-opacity="1" fill-rule="nonzero"/></g><g clip-path="url(#579c3a45e8)"><path fill="#ffb81c" d="M 322.0625 10.980469 C 344.117188 10.980469 364.003906 19.894531 378.402344 34.292969 C 392.917969 48.804688 401.832031 68.691406 401.832031 90.75 C 401.832031 112.804688 392.917969 132.691406 378.402344 147.203125 C 364.003906 161.601562 344.117188 170.515625 322.0625 170.515625 C 300.003906 170.515625 280.121094 161.601562 265.605469 147.203125 C 251.207031 132.691406 242.292969 112.804688 242.292969 90.75 C 242.292969 68.691406 251.207031 48.804688 265.605469 34.292969 C 280.121094 19.894531 300.003906 10.980469 322.0625 10.980469 Z M 377.832031 34.976562 C 363.546875 20.691406 343.773438 11.894531 322.0625 11.894531 C 300.234375 11.894531 280.460938 20.691406 266.292969 34.976562 C 252.003906 49.261719 243.089844 68.921875 243.089844 90.75 C 243.089844 112.574219 252.003906 132.234375 266.292969 146.519531 C 280.460938 160.804688 300.234375 169.601562 322.0625 169.601562 C 343.773438 169.601562 363.546875 160.804688 377.832031 146.519531 C 392.117188 132.234375 400.917969 112.574219 400.917969 90.75 C 400.917969 68.921875 392.117188 49.261719 377.832031 34.976562 Z M 377.832031 34.976562 " fill-opacity="1" fill-rule="nonzero"/></g><g clip-path="url(#498245c60e)"><path fill="#ffb81c" d="M 344.804688 10.980469 C 366.746094 10.980469 386.746094 19.894531 401.144531 34.292969 C 415.660156 48.804688 424.574219 68.691406 424.574219 90.75 C 424.574219 112.804688 415.660156 132.691406 401.144531 147.203125 C 386.746094 161.601562 366.746094 170.515625 344.804688 170.515625 C 322.746094 170.515625 302.746094 161.601562 288.347656 147.203125 C 273.949219 132.691406 265.035156 112.804688 265.035156 90.75 C 265.035156 68.691406 273.949219 48.804688 288.347656 34.292969 C 302.746094 19.894531 322.746094 10.980469 344.804688 10.980469 Z M 400.574219 34.976562 C 386.289062 20.691406 366.515625 11.894531 344.804688 11.894531 C 322.976562 11.894531 303.203125 20.691406 289.035156 34.976562 C 274.75 49.261719 265.835938 68.921875 265.835938 90.75 C 265.835938 112.574219 274.75 132.234375 289.035156 146.519531 C 303.203125 160.804688 322.976562 169.601562 344.804688 169.601562 C 366.515625 169.601562 386.289062 160.804688 400.574219 146.519531 C 414.859375 132.234375 423.660156 112.574219 423.660156 90.75 C 423.660156 68.921875 414.859375 49.261719 400.574219 34.976562 Z M 400.574219 34.976562 " fill-opacity="1" fill-rule="nonzero"/></g><g clip-path="url(#323b0faac0)"><path fill="#ffb81c" d="M 367.546875 10.980469 C 389.488281 10.980469 409.488281 19.894531 423.886719 34.292969 C 438.402344 48.804688 447.316406 68.691406 447.316406 90.75 C 447.316406 112.804688 438.402344 132.691406 423.886719 147.203125 C 409.488281 161.601562 389.488281 170.515625 367.546875 170.515625 C 345.488281 170.515625 325.488281 161.601562 311.089844 147.203125 C 296.691406 132.691406 287.777344 112.804688 287.777344 90.75 C 287.777344 68.691406 296.691406 48.804688 311.089844 34.292969 C 325.488281 19.894531 345.488281 10.980469 367.546875 10.980469 Z M 423.316406 34.976562 C 409.03125 20.691406 389.257812 11.894531 367.546875 11.894531 C 345.71875 11.894531 325.945312 20.691406 311.660156 34.976562 C 297.492188 49.261719 288.578125 68.921875 288.578125 90.75 C 288.578125 112.574219 297.492188 132.234375 311.660156 146.519531 C 325.945312 160.804688 345.71875 169.601562 367.546875 169.601562 C 389.257812 169.601562 409.03125 160.804688 423.316406 146.519531 C 437.601562 132.234375 446.402344 112.574219 446.402344 90.75 C 446.402344 68.921875 437.601562 49.261719 423.316406 34.976562 Z M 423.316406 34.976562 " fill-opacity="1" fill-rule="nonzero"/></g><g clip-path="url(#528ccc2ce8)"><path fill="#ffb81c" d="M 390.289062 10.980469 C 412.230469 10.980469 432.230469 19.894531 446.628906 34.292969 C 461.144531 48.804688 470.058594 68.691406 470.058594 90.75 C 470.058594 112.804688 461.144531 132.691406 446.628906 147.203125 C 432.230469 161.601562 412.230469 170.515625 390.289062 170.515625 C 368.230469 170.515625 348.230469 161.601562 333.832031 147.203125 C 319.433594 132.691406 310.519531 112.804688 310.519531 90.75 C 310.519531 68.691406 319.433594 48.804688 333.832031 34.292969 C 348.230469 19.894531 368.230469 10.980469 390.289062 10.980469 Z M 446.058594 34.976562 C 431.773438 20.691406 412 11.894531 390.289062 11.894531 C 368.460938 11.894531 348.6875 20.691406 334.402344 34.976562 C 320.117188 49.261719 311.320312 68.921875 311.320312 90.75 C 311.320312 112.574219 320.117188 132.234375 334.402344 146.519531 C 348.6875 160.804688 368.460938 169.601562 390.289062 169.601562 C 412 169.601562 431.773438 160.804688 446.058594 146.519531 C 460.34375 132.234375 469.144531 112.574219 469.144531 90.75 C 469.144531 68.921875 460.34375 49.261719 446.058594 34.976562 Z M 446.058594 34.976562 " fill-opacity="1" fill-rule="nonzero"/></g><path fill="#ffb81c" d="M 174.523438 65.261719 C 175.4375 89.148438 176.121094 89.832031 199.894531 90.75 C 176.121094 91.664062 175.4375 92.347656 174.523438 116.234375 C 173.609375 92.347656 172.808594 91.664062 149.035156 90.75 C 172.808594 89.832031 173.609375 89.148438 174.523438 65.261719 Z M 174.523438 65.261719 " fill-opacity="1" fill-rule="evenodd"/></svg>