<svg xmlns="http://www.w3.org/2000/svg" xmlns:xlink="http://www.w3.org/1999/xlink" width="464" zoomAndPan="magnify" viewBox="0 0 348 182.249993" height="243" preserveAspectRatio="xMidYMid meet" version="1.0"><defs><clipPath id="a2c3eef8eb"><path d="M 98.910156 6.453125 L 249.042969 6.453125 L 249.042969 136.421875 L 98.910156 136.421875 Z M 98.910156 6.453125 " clip-rule="nonzero"/></clipPath></defs><g clip-path="url(#a2c3eef8eb)"><path fill="#737373" d="M 249.074219 136.503906 L 98.902344 136.503906 L 99.042969 136.261719 L 174 6.453125 Z M 99.464844 136.179688 L 248.511719 136.179688 L 174 7.101562 Z M 99.464844 136.179688 " fill-opacity="1" fill-rule="nonzero"/></g><path fill="#737373" d="M 242.316406 130.117188 L 105.660156 130.117188 L 105.796875 129.875 L 174 11.777344 Z M 106.21875 129.792969 L 241.773438 129.792969 L 174 12.425781 Z M 106.21875 129.792969 " fill-opacity="1" fill-rule="nonzero"/><path fill="#737373" d="M 235.5625 123.746094 L 112.414062 123.746094 L 112.554688 123.503906 L 174 17.09375 Z M 112.972656 123.425781 L 235.003906 123.425781 L 174 17.742188 Z M 112.972656 123.425781 " fill-opacity="1" fill-rule="nonzero"/><path fill="#737373" d="M 228.808594 117.367188 L 119.167969 117.367188 L 119.308594 117.125 L 174 22.417969 Z M 119.730469 117.042969 L 228.246094 117.042969 L 174 23.066406 Z M 119.730469 117.042969 " fill-opacity="1" fill-rule="nonzero"/><path fill="#737373" d="M 222.050781 110.988281 L 125.925781 110.988281 L 174 27.738281 Z M 126.484375 110.664062 L 221.492188 110.664062 L 174 28.386719 Z M 126.484375 110.664062 " fill-opacity="1" fill-rule="nonzero"/><path fill="#737373" d="M 215.296875 104.609375 L 132.679688 104.609375 L 174 33.0625 Z M 133.238281 104.285156 L 214.738281 104.285156 L 174 33.707031 Z M 133.238281 104.285156 " fill-opacity="1" fill-rule="nonzero"/><path fill="#737373" d="M 208.542969 98.230469 L 139.433594 98.230469 L 173.988281 38.378906 Z M 139.996094 97.90625 L 207.96875 97.90625 L 174 39.027344 Z M 139.996094 97.90625 " fill-opacity="1" fill-rule="nonzero"/><path fill="#737373" d="M 201.789062 91.851562 L 146.175781 91.851562 L 174 43.703125 Z M 146.75 91.527344 L 201.226562 91.527344 L 174 44.347656 Z M 146.75 91.527344 " fill-opacity="1" fill-rule="nonzero"/><path fill="#737373" d="M 195.027344 85.472656 L 152.941406 85.472656 L 174 49.023438 Z M 153.5 85.148438 L 194.472656 85.148438 L 174 49.671875 Z M 153.5 85.148438 " fill-opacity="1" fill-rule="nonzero"/><path fill="#737373" d="M 188.277344 79.09375 L 159.695312 79.09375 L 174 54.34375 Z M 160.261719 78.769531 L 187.71875 78.769531 L 174 54.988281 Z M 160.261719 78.769531 " fill-opacity="1" fill-rule="nonzero"/></svg>