<svg xmlns="http://www.w3.org/2000/svg" xmlns:xlink="http://www.w3.org/1999/xlink" width="464" zoomAndPan="magnify" viewBox="0 0 348 182.249993" height="243" preserveAspectRatio="xMidYMid meet" version="1.0"><defs><g/><clipPath id="ee042cf575"><path d="M 0.714844 0 L 111.097656 0 L 111.097656 124 L 0.714844 124 Z M 0.714844 0 " clip-rule="nonzero"/></clipPath><clipPath id="8e7254728e"><path d="M 236.898438 55 L 347.285156 55 L 347.285156 181.503906 L 236.898438 181.503906 Z M 236.898438 55 " clip-rule="nonzero"/></clipPath><clipPath id="82db2e56fa"><rect x="0" width="185" y="0" height="65"/></clipPath></defs><g clip-path="url(#ee042cf575)"><path fill="#737373" d="M -11.375 8.148438 L -11.375 8.351562 L -0.976562 8.351562 L -0.976562 8.148438 Z M 8.886719 -12.113281 L 8.886719 -1.71875 L 9.09375 -1.71875 L 9.09375 -12.113281 Z M 92.964844 8.148438 C 92.441406 7.976562 92 7.679688 91.640625 7.265625 C 91.277344 6.851562 91.046875 6.375 90.945312 5.835938 L 90.945312 -12.113281 L 90.742188 -12.113281 L 90.742188 6.230469 C 90.589844 6.683594 90.347656 7.078125 90.011719 7.417969 C 89.671875 7.753906 89.277344 8 88.824219 8.148438 L 72.5 8.148438 C 71.976562 7.976562 71.535156 7.679688 71.175781 7.265625 C 70.8125 6.851562 70.582031 6.375 70.480469 5.835938 L 70.480469 -12.113281 L 70.277344 -12.113281 L 70.277344 6.230469 C 70.128906 6.683594 69.882812 7.078125 69.546875 7.417969 C 69.210938 7.753906 68.816406 8 68.363281 8.148438 L 52.035156 8.148438 C 51.515625 7.976562 51.074219 7.679688 50.710938 7.265625 C 50.351562 6.851562 50.117188 6.375 50.019531 5.835938 L 50.019531 -1.980469 L 49.8125 -1.980469 L 49.8125 6.230469 C 49.664062 6.683594 49.417969 7.078125 49.082031 7.417969 C 48.746094 7.753906 48.351562 8 47.898438 8.148438 L 31.570312 8.148438 C 31.050781 7.976562 30.609375 7.679688 30.246094 7.265625 C 29.886719 6.851562 29.65625 6.375 29.554688 5.835938 L 29.554688 -12.113281 L 29.351562 -12.113281 L 29.351562 6.230469 C 29.199219 6.683594 28.957031 7.078125 28.617188 7.417969 C 28.28125 7.753906 27.886719 8 27.433594 8.148438 L 19.195312 8.148438 L 19.195312 8.351562 L 27.035156 8.351562 C 27.574219 8.453125 28.050781 8.683594 28.464844 9.046875 C 28.882812 9.40625 29.175781 9.847656 29.347656 10.371094 L 29.347656 26.695312 C 29.199219 27.148438 28.953125 27.542969 28.617188 27.878906 C 28.28125 28.214844 27.886719 28.460938 27.433594 28.609375 L 11.109375 28.609375 C 10.585938 28.4375 10.144531 28.144531 9.78125 27.730469 C 9.421875 27.3125 9.191406 26.835938 9.089844 26.296875 L 9.089844 18.457031 L 8.886719 18.457031 L 8.886719 26.695312 C 8.738281 27.148438 8.492188 27.542969 8.15625 27.878906 C 7.820312 28.214844 7.425781 28.460938 6.972656 28.609375 L -1.417969 28.609375 L -1.417969 28.816406 L 6.570312 28.816406 C 7.113281 28.914062 7.589844 29.148438 8.003906 29.507812 C 8.421875 29.871094 8.714844 30.3125 8.886719 30.832031 L 8.886719 47.160156 C 8.738281 47.613281 8.492188 48.007812 8.15625 48.34375 C 7.820312 48.679688 7.425781 48.925781 6.972656 49.074219 L -11.375 49.074219 L -11.375 49.277344 L 6.570312 49.277344 C 7.113281 49.378906 7.589844 49.609375 8.003906 49.972656 C 8.421875 50.332031 8.714844 50.773438 8.886719 51.296875 L 8.886719 67.625 C 8.738281 68.074219 8.492188 68.46875 8.15625 68.808594 C 7.820312 69.144531 7.425781 69.386719 6.972656 69.539062 L -11.375 69.539062 L -11.375 69.742188 L 6.570312 69.742188 C 7.113281 69.84375 7.589844 70.074219 8.003906 70.4375 C 8.421875 70.796875 8.714844 71.238281 8.886719 71.761719 L 8.886719 88.085938 C 8.738281 88.539062 8.492188 88.933594 8.15625 89.269531 C 7.820312 89.609375 7.425781 89.851562 6.972656 90.003906 L -11.375 90.003906 L -11.375 90.207031 L 6.570312 90.207031 C 7.113281 90.308594 7.589844 90.539062 8.003906 90.898438 C 8.421875 91.261719 8.714844 91.703125 8.886719 92.222656 L 8.886719 108.550781 C 8.738281 109.003906 8.492188 109.398438 8.15625 109.734375 C 7.820312 110.070312 7.425781 110.316406 6.972656 110.464844 L -11.375 110.464844 L -11.375 110.671875 L 6.570312 110.671875 C 7.113281 110.769531 7.589844 111.003906 8.003906 111.363281 C 8.417969 111.722656 8.714844 112.167969 8.886719 112.6875 L 8.886719 123.539062 L 9.09375 123.460938 L 9.09375 113.085938 C 9.207031 112.472656 9.484375 111.945312 9.925781 111.503906 C 10.367188 111.0625 10.894531 110.785156 11.507812 110.671875 L 21.042969 110.671875 L 21.042969 110.464844 L 11.109375 110.464844 C 10.585938 110.292969 10.144531 110 9.785156 109.585938 C 9.421875 109.171875 9.191406 108.691406 9.089844 108.152344 L 9.089844 92.625 C 9.203125 92.007812 9.484375 91.480469 9.921875 91.039062 C 10.363281 90.597656 10.890625 90.320312 11.507812 90.207031 L 21.042969 90.207031 L 21.042969 90.003906 L 11.109375 90.003906 C 10.585938 89.828125 10.144531 89.535156 9.785156 89.121094 C 9.421875 88.707031 9.191406 88.230469 9.089844 87.6875 L 9.089844 72.160156 C 9.203125 71.546875 9.484375 71.019531 9.921875 70.578125 C 10.363281 70.136719 10.890625 69.855469 11.507812 69.742188 L 21.042969 69.742188 L 21.042969 69.539062 L 11.109375 69.539062 C 10.585938 69.363281 10.144531 69.070312 9.785156 68.65625 C 9.421875 68.242188 9.191406 67.765625 9.089844 67.226562 L 9.089844 51.695312 C 9.203125 51.082031 9.484375 50.554688 9.921875 50.113281 C 10.363281 49.671875 10.890625 49.394531 11.507812 49.277344 L 27.035156 49.277344 C 27.574219 49.378906 28.050781 49.609375 28.464844 49.972656 C 28.882812 50.332031 29.175781 50.773438 29.347656 51.296875 L 29.347656 60.5625 L 29.550781 60.5625 L 29.550781 51.695312 C 29.667969 51.082031 29.945312 50.554688 30.386719 50.113281 C 30.828125 49.671875 31.355469 49.394531 31.96875 49.277344 L 42.097656 49.277344 L 42.097656 49.074219 L 31.570312 49.074219 C 31.050781 48.902344 30.609375 48.609375 30.246094 48.191406 C 29.886719 47.777344 29.65625 47.300781 29.554688 46.761719 L 29.554688 31.230469 C 29.667969 30.617188 29.945312 30.089844 30.386719 29.648438 C 30.828125 29.207031 31.355469 28.929688 31.96875 28.816406 L 47.5 28.816406 C 48.039062 28.917969 48.519531 29.148438 48.933594 29.507812 C 49.347656 29.871094 49.640625 30.3125 49.8125 30.832031 L 49.8125 41.535156 L 50.019531 41.535156 L 50.019531 31.230469 C 50.132812 30.617188 50.410156 30.085938 50.851562 29.644531 C 51.292969 29.203125 51.820312 28.925781 52.433594 28.8125 L 62.535156 28.8125 L 62.535156 28.609375 L 52.035156 28.609375 C 51.515625 28.433594 51.074219 28.140625 50.710938 27.726562 C 50.351562 27.3125 50.117188 26.835938 50.019531 26.296875 L 50.019531 10.765625 C 50.132812 10.152344 50.410156 9.625 50.851562 9.183594 C 51.292969 8.742188 51.820312 8.464844 52.433594 8.351562 L 67.964844 8.351562 C 68.503906 8.453125 68.980469 8.683594 69.394531 9.042969 C 69.808594 9.40625 70.105469 9.847656 70.277344 10.367188 L 70.277344 20.921875 L 70.480469 20.921875 L 70.480469 10.765625 C 70.597656 10.152344 70.875 9.625 71.316406 9.183594 C 71.757812 8.742188 72.285156 8.464844 72.898438 8.351562 L 88.429688 8.351562 C 88.96875 8.453125 89.445312 8.683594 89.859375 9.042969 C 90.273438 9.40625 90.566406 9.847656 90.742188 10.367188 L 90.742188 25.328125 L 90.945312 25.328125 L 90.945312 10.765625 C 91.058594 10.152344 91.339844 9.625 91.78125 9.183594 C 92.222656 8.742188 92.75 8.464844 93.363281 8.351562 L 107.023438 8.351562 L 107.023438 8.148438 Z M 29.351562 47.160156 C 29.199219 47.613281 28.957031 48.007812 28.617188 48.34375 C 28.28125 48.679688 27.886719 48.925781 27.433594 49.074219 L 11.109375 49.074219 C 10.585938 48.902344 10.144531 48.609375 9.785156 48.191406 C 9.421875 47.777344 9.191406 47.300781 9.089844 46.761719 L 9.089844 31.230469 C 9.203125 30.617188 9.484375 30.089844 9.921875 29.648438 C 10.363281 29.207031 10.890625 28.925781 11.507812 28.8125 L 27.035156 28.8125 C 27.574219 28.914062 28.050781 29.144531 28.464844 29.503906 C 28.882812 29.867188 29.175781 30.308594 29.347656 30.828125 Z M 49.8125 26.695312 C 49.664062 27.148438 49.417969 27.542969 49.082031 27.878906 C 48.746094 28.214844 48.351562 28.460938 47.898438 28.609375 L 31.570312 28.609375 C 31.050781 28.4375 30.609375 28.144531 30.246094 27.730469 C 29.886719 27.3125 29.65625 26.835938 29.554688 26.296875 L 29.554688 10.765625 C 29.667969 10.152344 29.945312 9.625 30.386719 9.183594 C 30.828125 8.746094 31.355469 8.464844 31.96875 8.351562 L 47.5 8.351562 C 48.039062 8.453125 48.519531 8.683594 48.933594 9.042969 C 49.347656 9.40625 49.640625 9.847656 49.8125 10.367188 Z M 111.203125 -12.113281 L 111.203125 4.007812 L 111.410156 4.007812 L 111.410156 -12.113281 Z M 111.203125 -12.113281 " fill-opacity="1" fill-rule="nonzero"/></g><g clip-path="url(#8e7254728e)"><path fill="#737373" d="M 359.367188 170.894531 L 359.367188 170.691406 L 348.972656 170.691406 L 348.972656 170.894531 Z M 339.105469 191.15625 L 339.105469 180.761719 L 338.902344 180.761719 L 338.902344 191.15625 Z M 255.03125 170.894531 C 255.554688 171.070312 255.996094 171.363281 256.355469 171.777344 C 256.71875 172.191406 256.949219 172.667969 257.050781 173.210938 L 257.050781 191.15625 L 257.253906 191.15625 L 257.253906 172.8125 C 257.402344 172.359375 257.648438 171.964844 257.984375 171.628906 C 258.320312 171.289062 258.714844 171.046875 259.167969 170.894531 L 275.496094 170.894531 C 276.015625 171.070312 276.457031 171.363281 276.820312 171.777344 C 277.179688 172.191406 277.414062 172.667969 277.511719 173.210938 L 277.511719 191.15625 L 277.71875 191.15625 L 277.71875 172.8125 C 277.867188 172.359375 278.113281 171.964844 278.449219 171.628906 C 278.785156 171.289062 279.179688 171.046875 279.632812 170.894531 L 295.960938 170.894531 C 296.480469 171.070312 296.921875 171.363281 297.285156 171.777344 C 297.644531 172.191406 297.875 172.667969 297.976562 173.210938 L 297.976562 181.027344 L 298.179688 181.027344 L 298.179688 172.8125 C 298.332031 172.359375 298.574219 171.964844 298.914062 171.628906 C 299.25 171.289062 299.644531 171.046875 300.097656 170.894531 L 316.421875 170.894531 C 316.945312 171.070312 317.386719 171.363281 317.746094 171.777344 C 318.109375 172.191406 318.339844 172.667969 318.441406 173.210938 L 318.441406 191.15625 L 318.644531 191.15625 L 318.644531 172.8125 C 318.796875 172.359375 319.039062 171.964844 319.375 171.628906 C 319.714844 171.289062 320.109375 171.046875 320.558594 170.894531 L 328.800781 170.894531 L 328.800781 170.691406 L 320.960938 170.691406 C 320.421875 170.589844 319.941406 170.359375 319.527344 169.996094 C 319.113281 169.636719 318.820312 169.195312 318.648438 168.671875 L 318.648438 152.347656 C 318.796875 151.894531 319.042969 151.5 319.378906 151.164062 C 319.714844 150.828125 320.109375 150.582031 320.5625 150.433594 L 336.886719 150.433594 C 337.410156 150.605469 337.851562 150.902344 338.210938 151.316406 C 338.574219 151.730469 338.804688 152.207031 338.90625 152.75 L 338.90625 160.589844 L 339.105469 160.589844 L 339.105469 152.347656 C 339.257812 151.894531 339.5 151.5 339.839844 151.164062 C 340.175781 150.828125 340.570312 150.582031 341.023438 150.433594 L 349.414062 150.433594 L 349.414062 150.230469 L 341.421875 150.230469 C 340.882812 150.128906 340.40625 149.898438 339.988281 149.535156 C 339.574219 149.175781 339.28125 148.734375 339.105469 148.210938 L 339.105469 131.882812 C 339.257812 131.433594 339.5 131.039062 339.839844 130.699219 C 340.175781 130.363281 340.570312 130.121094 341.023438 129.96875 L 359.367188 129.96875 L 359.367188 129.765625 L 341.421875 129.765625 C 340.882812 129.664062 340.40625 129.433594 339.988281 129.074219 C 339.574219 128.710938 339.28125 128.269531 339.105469 127.746094 L 339.105469 111.421875 C 339.257812 110.96875 339.5 110.574219 339.839844 110.238281 C 340.175781 109.898438 340.570312 109.65625 341.023438 109.503906 L 359.367188 109.503906 L 359.367188 109.300781 L 341.421875 109.300781 C 340.882812 109.199219 340.40625 108.96875 339.988281 108.609375 C 339.574219 108.246094 339.28125 107.804688 339.105469 107.285156 L 339.105469 90.957031 C 339.257812 90.503906 339.5 90.109375 339.839844 89.773438 C 340.175781 89.4375 340.570312 89.191406 341.023438 89.042969 L 359.367188 89.042969 L 359.367188 88.835938 L 341.421875 88.835938 C 340.882812 88.738281 340.40625 88.507812 339.988281 88.144531 C 339.574219 87.785156 339.28125 87.34375 339.105469 86.820312 L 339.105469 70.492188 C 339.257812 70.039062 339.5 69.644531 339.839844 69.308594 C 340.175781 68.972656 340.570312 68.730469 341.023438 68.578125 L 359.367188 68.578125 L 359.367188 68.375 L 341.421875 68.375 C 340.882812 68.273438 340.40625 68.042969 339.988281 67.679688 C 339.574219 67.320312 339.28125 66.878906 339.105469 66.355469 L 339.105469 55.507812 L 338.902344 55.582031 L 338.902344 65.957031 C 338.789062 66.570312 338.511719 67.097656 338.070312 67.539062 C 337.628906 67.980469 337.101562 68.257812 336.488281 68.375 L 326.949219 68.375 L 326.949219 68.578125 L 336.886719 68.578125 C 337.410156 68.75 337.851562 69.046875 338.210938 69.460938 C 338.574219 69.875 338.804688 70.351562 338.90625 70.890625 L 338.90625 86.421875 C 338.789062 87.035156 338.511719 87.5625 338.070312 88.003906 C 337.628906 88.445312 337.101562 88.722656 336.488281 88.835938 L 326.949219 88.835938 L 326.949219 89.042969 L 336.886719 89.042969 C 337.410156 89.214844 337.851562 89.507812 338.210938 89.921875 C 338.574219 90.335938 338.804688 90.816406 338.90625 91.355469 L 338.90625 106.886719 C 338.789062 107.5 338.511719 108.027344 338.070312 108.46875 C 337.628906 108.910156 337.101562 109.1875 336.488281 109.300781 L 326.949219 109.300781 L 326.949219 109.503906 L 336.886719 109.503906 C 337.410156 109.679688 337.851562 109.972656 338.210938 110.386719 C 338.574219 110.800781 338.804688 111.277344 338.90625 111.820312 L 338.90625 127.347656 C 338.789062 127.960938 338.511719 128.488281 338.070312 128.929688 C 337.628906 129.371094 337.101562 129.652344 336.488281 129.765625 L 320.960938 129.765625 C 320.421875 129.664062 319.941406 129.433594 319.527344 129.070312 C 319.113281 128.710938 318.820312 128.269531 318.648438 127.746094 L 318.648438 118.480469 L 318.441406 118.480469 L 318.441406 127.347656 C 318.328125 127.960938 318.050781 128.488281 317.609375 128.929688 C 317.167969 129.371094 316.640625 129.652344 316.027344 129.765625 L 305.898438 129.765625 L 305.898438 129.96875 L 316.421875 129.96875 C 316.945312 130.144531 317.386719 130.4375 317.746094 130.851562 C 318.109375 131.265625 318.339844 131.742188 318.441406 132.28125 L 318.441406 147.816406 C 318.328125 148.429688 318.046875 148.953125 317.609375 149.394531 C 317.167969 149.835938 316.640625 150.113281 316.027344 150.230469 L 300.496094 150.230469 C 299.953125 150.128906 299.476562 149.898438 299.0625 149.535156 C 298.648438 149.175781 298.355469 148.734375 298.179688 148.210938 L 298.179688 137.507812 L 297.976562 137.507812 L 297.976562 147.816406 C 297.863281 148.429688 297.585938 148.957031 297.144531 149.398438 C 296.703125 149.839844 296.175781 150.117188 295.5625 150.230469 L 285.460938 150.230469 L 285.460938 150.4375 L 295.960938 150.4375 C 296.480469 150.609375 296.921875 150.902344 297.285156 151.316406 C 297.644531 151.730469 297.875 152.207031 297.976562 152.75 L 297.976562 168.277344 C 297.863281 168.890625 297.585938 169.417969 297.144531 169.859375 C 296.703125 170.300781 296.175781 170.578125 295.5625 170.691406 L 280.03125 170.691406 C 279.492188 170.589844 279.011719 170.359375 278.597656 170 C 278.183594 169.636719 277.890625 169.195312 277.71875 168.675781 L 277.71875 158.121094 L 277.511719 158.121094 L 277.511719 168.277344 C 277.398438 168.890625 277.121094 169.417969 276.679688 169.859375 C 276.238281 170.300781 275.710938 170.578125 275.097656 170.691406 L 259.566406 170.691406 C 259.027344 170.589844 258.550781 170.359375 258.136719 170 C 257.722656 169.636719 257.425781 169.195312 257.253906 168.675781 L 257.253906 153.71875 L 257.050781 153.71875 L 257.050781 168.277344 C 256.933594 168.890625 256.65625 169.417969 256.214844 169.859375 C 255.773438 170.300781 255.246094 170.578125 254.632812 170.691406 L 240.972656 170.691406 L 240.972656 170.894531 Z M 318.644531 131.882812 C 318.796875 131.433594 319.039062 131.039062 319.375 130.699219 C 319.714844 130.363281 320.109375 130.121094 320.558594 129.96875 L 336.886719 129.96875 C 337.410156 130.144531 337.851562 130.4375 338.210938 130.851562 C 338.574219 131.265625 338.804688 131.742188 338.90625 132.28125 L 338.90625 147.816406 C 338.789062 148.429688 338.511719 148.957031 338.070312 149.398438 C 337.628906 149.839844 337.101562 150.117188 336.488281 150.230469 L 320.960938 150.230469 C 320.421875 150.128906 319.941406 149.898438 319.527344 149.539062 C 319.113281 149.175781 318.820312 148.734375 318.648438 148.214844 Z M 298.179688 152.347656 C 298.332031 151.894531 298.574219 151.5 298.914062 151.164062 C 299.25 150.828125 299.644531 150.582031 300.097656 150.433594 L 316.421875 150.433594 C 316.945312 150.605469 317.386719 150.902344 317.75 151.316406 C 318.109375 151.730469 318.339844 152.207031 318.441406 152.75 L 318.441406 168.277344 C 318.328125 168.890625 318.050781 169.417969 317.609375 169.859375 C 317.167969 170.300781 316.640625 170.578125 316.027344 170.691406 L 300.496094 170.691406 C 299.953125 170.589844 299.476562 170.359375 299.0625 170 C 298.648438 169.636719 298.355469 169.195312 298.179688 168.675781 Z M 236.789062 191.15625 L 236.789062 175.035156 L 236.585938 175.035156 L 236.585938 191.15625 Z M 236.789062 191.15625 " fill-opacity="1" fill-rule="nonzero"/></g><g transform="matrix(1, 0, 0, 1, 77, 58)"><g clip-path="url(#82db2e56fa)"><g fill="#737373" fill-opacity="1"><g transform="translate(0.335835, 48.146326)"><g><path d="M 1.65625 0 C 1.164062 0 0.921875 -0.175781 0.921875 -0.53125 C 0.921875 -0.820312 1.132812 -1.019531 1.5625 -1.125 L 2.671875 -1.3125 C 3.359375 -1.445312 3.804688 -1.625 4.015625 -1.84375 C 4.222656 -2.070312 4.328125 -2.53125 4.328125 -3.21875 L 4.328125 -31.84375 C 4.328125 -32.519531 4.222656 -32.972656 4.015625 -33.203125 C 3.804688 -33.429688 3.359375 -33.609375 2.671875 -33.734375 L 1.5625 -33.9375 C 1.132812 -34.03125 0.921875 -34.222656 0.921875 -34.515625 C 0.921875 -34.878906 1.164062 -35.0625 1.65625 -35.0625 L 10.5625 -35.0625 C 11.050781 -35.0625 11.296875 -34.863281 11.296875 -34.46875 C 11.296875 -34.175781 11.117188 -34 10.765625 -33.9375 L 9.453125 -33.734375 C 8.765625 -33.640625 8.316406 -33.460938 8.109375 -33.203125 C 7.898438 -32.941406 7.796875 -32.472656 7.796875 -31.796875 L 7.796875 -19.578125 C 7.796875 -19.117188 8.019531 -18.890625 8.46875 -18.890625 L 18.109375 -18.890625 C 18.566406 -18.890625 18.796875 -19.117188 18.796875 -19.578125 L 18.796875 -31.796875 C 18.796875 -32.472656 18.6875 -32.941406 18.46875 -33.203125 C 18.257812 -33.460938 17.816406 -33.640625 17.140625 -33.734375 L 15.828125 -33.9375 C 15.460938 -34 15.28125 -34.175781 15.28125 -34.46875 C 15.28125 -34.863281 15.523438 -35.0625 16.015625 -35.0625 L 24.921875 -35.0625 C 25.410156 -35.0625 25.65625 -34.878906 25.65625 -34.515625 C 25.65625 -34.222656 25.445312 -34.03125 25.03125 -33.9375 L 23.90625 -33.734375 C 23.226562 -33.609375 22.78125 -33.429688 22.5625 -33.203125 C 22.351562 -32.972656 22.25 -32.519531 22.25 -31.84375 L 22.25 -3.21875 C 22.25 -2.53125 22.351562 -2.070312 22.5625 -1.84375 C 22.78125 -1.625 23.226562 -1.445312 23.90625 -1.3125 L 25.03125 -1.125 C 25.445312 -1.019531 25.65625 -0.820312 25.65625 -0.53125 C 25.65625 -0.175781 25.410156 0 24.921875 0 L 16.015625 0 C 15.523438 0 15.28125 -0.191406 15.28125 -0.578125 C 15.28125 -0.867188 15.460938 -1.050781 15.828125 -1.125 L 17.140625 -1.3125 C 17.816406 -1.40625 18.257812 -1.582031 18.46875 -1.84375 C 18.6875 -2.101562 18.796875 -2.578125 18.796875 -3.265625 L 18.796875 -16.75 C 18.796875 -17.207031 18.566406 -17.4375 18.109375 -17.4375 L 8.46875 -17.4375 C 8.019531 -17.4375 7.796875 -17.207031 7.796875 -16.75 L 7.796875 -3.265625 C 7.796875 -2.578125 7.898438 -2.101562 8.109375 -1.84375 C 8.316406 -1.582031 8.765625 -1.40625 9.453125 -1.3125 L 10.765625 -1.125 C 11.117188 -1.050781 11.296875 -0.867188 11.296875 -0.578125 C 11.296875 -0.191406 11.050781 0 10.5625 0 Z M 1.65625 0 "/></g></g></g><g fill="#737373" fill-opacity="1"><g transform="translate(26.044483, 48.146326)"><g><path d="M 9.34375 0.4375 C 7.789062 0.4375 6.394531 -0.078125 5.15625 -1.109375 C 3.925781 -2.148438 2.945312 -3.617188 2.21875 -5.515625 C 1.488281 -7.421875 1.125 -9.625 1.125 -12.125 C 1.125 -14.6875 1.492188 -16.941406 2.234375 -18.890625 C 2.984375 -20.835938 4.003906 -22.363281 5.296875 -23.46875 C 6.597656 -24.570312 8.046875 -25.125 9.640625 -25.125 C 11.554688 -25.125 13.101562 -24.335938 14.28125 -22.765625 C 15.46875 -21.191406 16.0625 -18.632812 16.0625 -15.09375 C 16.0625 -14.019531 15.65625 -13.484375 14.84375 -13.484375 L 5.59375 -13.484375 C 4.945312 -13.484375 4.625 -13.109375 4.625 -12.359375 C 4.625 -8.921875 5.125 -6.34375 6.125 -4.625 C 7.132812 -2.90625 8.421875 -2.046875 9.984375 -2.046875 C 11.210938 -2.046875 12.21875 -2.484375 13 -3.359375 C 13.78125 -4.234375 14.410156 -5.710938 14.890625 -7.796875 C 14.992188 -8.148438 15.207031 -8.328125 15.53125 -8.328125 C 15.914062 -8.328125 16.0625 -8.003906 15.96875 -7.359375 C 15.445312 -4.460938 14.617188 -2.4375 13.484375 -1.28125 C 12.347656 -0.132812 10.96875 0.4375 9.34375 0.4375 Z M 5.453125 -14.703125 L 10.375 -14.703125 C 11.925781 -14.703125 12.703125 -15.515625 12.703125 -17.140625 C 12.703125 -19.242188 12.441406 -20.894531 11.921875 -22.09375 C 11.410156 -23.300781 10.632812 -23.90625 9.59375 -23.90625 C 8.320312 -23.90625 7.253906 -23.175781 6.390625 -21.71875 C 5.535156 -20.257812 4.976562 -18.179688 4.71875 -15.484375 C 4.65625 -14.960938 4.898438 -14.703125 5.453125 -14.703125 Z M 5.453125 -14.703125 "/></g></g></g><g fill="#737373" fill-opacity="1"><g transform="translate(43.329656, 48.146326)"><g><path d="M 5.84375 0.4375 C 4.476562 0.4375 3.359375 0.0078125 2.484375 -0.84375 C 1.609375 -1.707031 1.171875 -2.851562 1.171875 -4.28125 C 1.171875 -5.675781 1.609375 -7 2.484375 -8.25 C 3.359375 -9.5 4.554688 -10.625 6.078125 -11.625 C 7.609375 -12.632812 9.347656 -13.453125 11.296875 -14.078125 C 11.710938 -14.203125 11.921875 -14.472656 11.921875 -14.890625 L 11.921875 -19.328125 C 11.921875 -20.890625 11.675781 -22 11.1875 -22.65625 C 10.707031 -23.320312 10.046875 -23.65625 9.203125 -23.65625 C 8.390625 -23.65625 7.648438 -23.289062 6.984375 -22.5625 C 6.316406 -21.832031 5.835938 -20.609375 5.546875 -18.890625 C 5.390625 -17.847656 5.039062 -17.09375 4.5 -16.625 C 3.96875 -16.15625 3.425781 -15.921875 2.875 -15.921875 C 1.96875 -15.921875 1.515625 -16.375 1.515625 -17.28125 C 1.515625 -18.226562 1.78125 -19.160156 2.3125 -20.078125 C 2.84375 -21.003906 3.546875 -21.847656 4.421875 -22.609375 C 5.304688 -23.378906 6.265625 -23.988281 7.296875 -24.4375 C 8.335938 -24.894531 9.378906 -25.125 10.421875 -25.125 C 13.628906 -25.125 15.234375 -23.257812 15.234375 -19.53125 L 15.234375 -4.625 C 15.234375 -3.257812 15.578125 -2.578125 16.265625 -2.578125 C 16.679688 -2.578125 17.066406 -2.859375 17.421875 -3.421875 C 17.785156 -3.992188 17.96875 -4.960938 17.96875 -6.328125 C 17.96875 -6.847656 18.175781 -7.109375 18.59375 -7.109375 C 18.988281 -7.109375 19.1875 -6.832031 19.1875 -6.28125 C 19.1875 -3.90625 18.769531 -2.191406 17.9375 -1.140625 C 17.113281 -0.0859375 16.179688 0.4375 15.140625 0.4375 C 14.359375 0.4375 13.738281 0.125 13.28125 -0.5 C 12.832031 -1.132812 12.523438 -1.894531 12.359375 -2.78125 C 12.328125 -3.101562 12.191406 -3.269531 11.953125 -3.28125 C 11.710938 -3.300781 11.476562 -3.148438 11.25 -2.828125 C 10.46875 -1.753906 9.671875 -0.941406 8.859375 -0.390625 C 8.046875 0.160156 7.039062 0.4375 5.84375 0.4375 Z M 7.15625 -1.796875 C 8 -1.796875 8.773438 -2.097656 9.484375 -2.703125 C 10.203125 -3.304688 10.785156 -4.109375 11.234375 -5.109375 C 11.691406 -6.117188 11.921875 -7.253906 11.921875 -8.515625 L 11.921875 -12.078125 C 11.921875 -12.691406 11.582031 -12.867188 10.90625 -12.609375 C 8.925781 -11.890625 7.390625 -10.90625 6.296875 -9.65625 C 5.210938 -8.414062 4.671875 -6.914062 4.671875 -5.15625 C 4.671875 -2.914062 5.5 -1.796875 7.15625 -1.796875 Z M 7.15625 -1.796875 "/></g></g></g><g fill="#737373" fill-opacity="1"><g transform="translate(62.757218, 48.146326)"><g><path d="M 8.8125 0.4375 C 7.382812 0.4375 6.109375 -0.0546875 4.984375 -1.046875 C 3.867188 -2.035156 3 -3.414062 2.375 -5.1875 C 1.757812 -6.957031 1.453125 -9.007812 1.453125 -11.34375 C 1.453125 -14.070312 1.875 -16.46875 2.71875 -18.53125 C 3.570312 -20.59375 4.742188 -22.207031 6.234375 -23.375 C 7.722656 -24.539062 9.410156 -25.125 11.296875 -25.125 C 11.753906 -25.125 12.207031 -25.082031 12.65625 -25 C 13.113281 -24.914062 13.550781 -24.78125 13.96875 -24.59375 C 14.488281 -24.332031 14.75 -24.441406 14.75 -24.921875 L 14.75 -31.15625 C 14.75 -31.738281 14.660156 -32.144531 14.484375 -32.375 C 14.304688 -32.601562 13.988281 -32.734375 13.53125 -32.765625 L 12.265625 -32.90625 C 11.910156 -32.976562 11.734375 -33.175781 11.734375 -33.5 C 11.734375 -33.820312 11.910156 -34.015625 12.265625 -34.078125 C 13.304688 -34.273438 14.140625 -34.503906 14.765625 -34.765625 C 15.398438 -35.023438 15.929688 -35.285156 16.359375 -35.546875 C 16.878906 -35.867188 17.269531 -36.03125 17.53125 -36.03125 C 17.882812 -36.03125 18.0625 -35.769531 18.0625 -35.25 L 18.0625 -4.625 C 18.0625 -3.257812 18.398438 -2.578125 19.078125 -2.578125 C 19.503906 -2.578125 19.894531 -2.859375 20.25 -3.421875 C 20.613281 -3.992188 20.796875 -4.960938 20.796875 -6.328125 C 20.796875 -6.847656 21.003906 -7.109375 21.421875 -7.109375 C 21.804688 -7.109375 22 -6.832031 22 -6.28125 C 22 -3.90625 21.59375 -2.191406 20.78125 -1.140625 C 19.976562 -0.0859375 19.054688 0.4375 18.015625 0.4375 C 17.078125 0.4375 16.363281 0.125 15.875 -0.5 C 15.382812 -1.132812 15.054688 -1.894531 14.890625 -2.78125 C 14.859375 -3.039062 14.742188 -3.175781 14.546875 -3.1875 C 14.359375 -3.207031 14.179688 -3.085938 14.015625 -2.828125 C 13.109375 -1.554688 12.28125 -0.691406 11.53125 -0.234375 C 10.789062 0.210938 9.882812 0.4375 8.8125 0.4375 Z M 9.890625 -1.796875 C 10.734375 -1.796875 11.519531 -2.078125 12.25 -2.640625 C 12.976562 -3.210938 13.578125 -3.984375 14.046875 -4.953125 C 14.515625 -5.929688 14.75 -7.023438 14.75 -8.234375 L 14.75 -19.1875 C 14.75 -20.644531 14.414062 -21.796875 13.75 -22.640625 C 13.082031 -23.484375 12.21875 -23.90625 11.15625 -23.90625 C 9.332031 -23.90625 7.859375 -22.84375 6.734375 -20.71875 C 5.617188 -18.59375 5.0625 -15.695312 5.0625 -12.03125 C 5.0625 -8.6875 5.488281 -6.144531 6.34375 -4.40625 C 7.207031 -2.664062 8.390625 -1.796875 9.890625 -1.796875 Z M 9.890625 -1.796875 "/></g></g></g><g fill="#737373" fill-opacity="1"><g transform="translate(85.008834, 48.146326)"><g><path d="M 5.546875 -29.453125 C 4.867188 -29.453125 4.289062 -29.695312 3.8125 -30.1875 C 3.34375 -30.675781 3.109375 -31.289062 3.109375 -32.03125 C 3.109375 -32.78125 3.34375 -33.390625 3.8125 -33.859375 C 4.289062 -34.328125 4.867188 -34.5625 5.546875 -34.5625 C 6.234375 -34.5625 6.800781 -34.328125 7.25 -33.859375 C 7.707031 -33.390625 7.9375 -32.78125 7.9375 -32.03125 C 7.9375 -31.289062 7.707031 -30.675781 7.25 -30.1875 C 6.800781 -29.695312 6.234375 -29.453125 5.546875 -29.453125 Z M 1.453125 0 C 0.972656 0 0.734375 -0.175781 0.734375 -0.53125 C 0.734375 -0.820312 0.941406 -1.019531 1.359375 -1.125 L 1.953125 -1.21875 C 2.765625 -1.34375 3.28125 -1.539062 3.5 -1.8125 C 3.726562 -2.09375 3.84375 -2.578125 3.84375 -3.265625 L 3.84375 -19.625 C 3.84375 -20.207031 3.753906 -20.601562 3.578125 -20.8125 C 3.398438 -21.019531 3.082031 -21.160156 2.625 -21.234375 L 1.609375 -21.375 C 1.179688 -21.40625 0.96875 -21.582031 0.96875 -21.90625 C 0.96875 -22.164062 1.226562 -22.34375 1.75 -22.4375 C 2.757812 -22.601562 3.570312 -22.863281 4.1875 -23.21875 C 4.800781 -23.582031 5.398438 -24.019531 5.984375 -24.53125 C 6.273438 -24.832031 6.519531 -24.984375 6.71875 -24.984375 C 7.007812 -24.984375 7.15625 -24.785156 7.15625 -24.390625 L 7.15625 -3.265625 C 7.15625 -2.578125 7.25 -2.085938 7.4375 -1.796875 C 7.632812 -1.503906 8.007812 -1.328125 8.5625 -1.265625 L 9.78125 -1.125 C 10.144531 -1.050781 10.328125 -0.867188 10.328125 -0.578125 C 10.328125 -0.191406 10.082031 0 9.59375 0 Z M 1.453125 0 "/></g></g></g><g fill="#737373" fill-opacity="1"><g transform="translate(95.866843, 48.146326)"><g><path d="M 1.453125 0 C 0.972656 0 0.734375 -0.175781 0.734375 -0.53125 C 0.734375 -0.820312 0.941406 -1.019531 1.359375 -1.125 L 1.953125 -1.21875 C 2.628906 -1.34375 3.070312 -1.539062 3.28125 -1.8125 C 3.5 -2.09375 3.609375 -2.578125 3.609375 -3.265625 L 3.609375 -19.625 C 3.609375 -20.207031 3.515625 -20.601562 3.328125 -20.8125 C 3.148438 -21.019531 2.835938 -21.160156 2.390625 -21.234375 L 1.359375 -21.375 C 0.941406 -21.40625 0.734375 -21.582031 0.734375 -21.90625 C 0.734375 -22.164062 0.992188 -22.34375 1.515625 -22.4375 C 2.515625 -22.601562 3.28125 -22.863281 3.8125 -23.21875 C 4.351562 -23.582031 4.914062 -24.019531 5.5 -24.53125 C 5.789062 -24.832031 6.035156 -24.984375 6.234375 -24.984375 C 6.523438 -24.984375 6.671875 -24.785156 6.671875 -24.390625 L 6.671875 -22.203125 C 6.671875 -21.910156 6.773438 -21.722656 6.984375 -21.640625 C 7.191406 -21.554688 7.425781 -21.644531 7.6875 -21.90625 C 8.988281 -23.144531 10.132812 -23.988281 11.125 -24.4375 C 12.113281 -24.894531 13.160156 -25.125 14.265625 -25.125 C 15.722656 -25.125 16.890625 -24.613281 17.765625 -23.59375 C 18.640625 -22.570312 19.078125 -21.066406 19.078125 -19.078125 L 19.078125 -3.265625 C 19.078125 -2.578125 19.179688 -2.09375 19.390625 -1.8125 C 19.609375 -1.539062 20.054688 -1.359375 20.734375 -1.265625 L 21.8125 -1.125 C 22.164062 -1.050781 22.34375 -0.851562 22.34375 -0.53125 C 22.34375 -0.175781 22.148438 0 21.765625 0 L 13.578125 0 C 13.128906 0 12.90625 -0.175781 12.90625 -0.53125 C 12.90625 -0.851562 13.082031 -1.050781 13.4375 -1.125 L 14.125 -1.21875 C 14.800781 -1.3125 15.242188 -1.503906 15.453125 -1.796875 C 15.671875 -2.085938 15.78125 -2.578125 15.78125 -3.265625 L 15.78125 -18.546875 C 15.78125 -20.140625 15.484375 -21.257812 14.890625 -21.90625 C 14.304688 -22.5625 13.484375 -22.890625 12.421875 -22.890625 C 11.378906 -22.890625 10.441406 -22.585938 9.609375 -21.984375 C 8.785156 -21.378906 8.128906 -20.582031 7.640625 -19.59375 C 7.148438 -18.601562 6.90625 -17.507812 6.90625 -16.3125 L 6.90625 -3.265625 C 6.90625 -2.578125 7.007812 -2.085938 7.21875 -1.796875 C 7.4375 -1.503906 7.882812 -1.328125 8.5625 -1.265625 L 9.890625 -1.125 C 10.242188 -1.050781 10.421875 -0.867188 10.421875 -0.578125 C 10.421875 -0.191406 10.175781 0 9.6875 0 Z M 1.453125 0 "/></g></g></g><g fill="#737373" fill-opacity="1"><g transform="translate(118.751438, 48.146326)"><g><path d="M 8.671875 10.46875 C 6.203125 10.46875 4.253906 9.972656 2.828125 8.984375 C 1.398438 7.992188 0.6875 6.800781 0.6875 5.40625 C 0.6875 4.820312 0.765625 4.289062 0.921875 3.8125 C 1.085938 3.34375 1.4375 2.800781 1.96875 2.1875 C 2.507812 1.570312 3.332031 0.78125 4.4375 -0.1875 C 4.820312 -0.550781 5.015625 -0.882812 5.015625 -1.1875 C 5.015625 -1.5 4.820312 -1.738281 4.4375 -1.90625 C 3.257812 -2.382812 2.554688 -3.003906 2.328125 -3.765625 C 2.109375 -4.535156 2.390625 -5.242188 3.171875 -5.890625 L 6.671875 -8.90625 C 7.054688 -9.226562 7.039062 -9.503906 6.625 -9.734375 C 5.289062 -10.390625 4.234375 -11.394531 3.453125 -12.75 C 2.671875 -14.113281 2.28125 -15.578125 2.28125 -17.140625 C 2.28125 -18.628906 2.601562 -19.972656 3.25 -21.171875 C 3.90625 -22.378906 4.785156 -23.335938 5.890625 -24.046875 C 6.992188 -24.765625 8.226562 -25.125 9.59375 -25.125 C 10.375 -25.125 11.117188 -24.992188 11.828125 -24.734375 C 12.285156 -24.566406 12.5625 -24.710938 12.65625 -25.171875 C 12.945312 -26.398438 13.488281 -27.363281 14.28125 -28.0625 C 15.082031 -28.757812 15.875 -29.109375 16.65625 -29.109375 C 17.394531 -29.109375 18 -28.890625 18.46875 -28.453125 C 18.945312 -28.015625 19.1875 -27.472656 19.1875 -26.828125 C 19.1875 -26.273438 19.019531 -25.835938 18.6875 -25.515625 C 18.363281 -25.191406 17.960938 -25.03125 17.484375 -25.03125 C 17.054688 -25.03125 16.742188 -25.109375 16.546875 -25.265625 C 16.359375 -25.429688 16.179688 -25.59375 16.015625 -25.75 C 15.859375 -25.914062 15.597656 -26 15.234375 -26 C 14.460938 -26 13.976562 -25.578125 13.78125 -24.734375 C 13.675781 -24.410156 13.679688 -24.132812 13.796875 -23.90625 C 13.910156 -23.675781 14.082031 -23.445312 14.3125 -23.21875 C 15.09375 -22.476562 15.703125 -21.570312 16.140625 -20.5 C 16.578125 -19.425781 16.796875 -18.238281 16.796875 -16.9375 C 16.796875 -15.382812 16.476562 -13.988281 15.84375 -12.75 C 15.207031 -11.519531 14.347656 -10.546875 13.265625 -9.828125 C 12.179688 -9.117188 10.957031 -8.765625 9.59375 -8.765625 C 9.007812 -8.765625 8.503906 -8.640625 8.078125 -8.390625 C 7.660156 -8.148438 7.238281 -7.804688 6.8125 -7.359375 L 5.984375 -6.421875 C 5.566406 -5.898438 5.445312 -5.40625 5.625 -4.9375 C 5.800781 -4.46875 6.25 -4.234375 6.96875 -4.234375 L 11.15625 -4.234375 C 13.488281 -4.234375 15.335938 -3.65625 16.703125 -2.5 C 18.066406 -1.351562 18.75 0.222656 18.75 2.234375 C 18.75 3.828125 18.289062 5.238281 17.375 6.46875 C 16.46875 7.707031 15.257812 8.679688 13.75 9.390625 C 12.238281 10.109375 10.546875 10.46875 8.671875 10.46875 Z M 9.546875 -9.984375 C 10.710938 -9.984375 11.632812 -10.613281 12.3125 -11.875 C 13 -13.144531 13.34375 -14.867188 13.34375 -17.046875 C 13.34375 -19.148438 12.992188 -20.84375 12.296875 -22.125 C 11.597656 -23.40625 10.679688 -24.046875 9.546875 -24.046875 C 8.410156 -24.046875 7.492188 -23.40625 6.796875 -22.125 C 6.097656 -20.84375 5.75 -19.148438 5.75 -17.046875 C 5.75 -14.867188 6.085938 -13.144531 6.765625 -11.875 C 7.453125 -10.613281 8.378906 -9.984375 9.546875 -9.984375 Z M 9.25 9.390625 C 10.414062 9.390625 11.484375 9.128906 12.453125 8.609375 C 13.429688 8.097656 14.203125 7.378906 14.765625 6.453125 C 15.335938 5.523438 15.625 4.476562 15.625 3.3125 C 15.625 1.851562 15.191406 0.726562 14.328125 -0.0625 C 13.472656 -0.863281 12.269531 -1.265625 10.71875 -1.265625 L 9.59375 -1.265625 C 8.582031 -1.265625 7.828125 -1.164062 7.328125 -0.96875 C 6.828125 -0.78125 6.347656 -0.441406 5.890625 0.046875 C 4.878906 1.117188 4.242188 1.976562 3.984375 2.625 C 3.734375 3.28125 3.609375 3.945312 3.609375 4.625 C 3.609375 6.050781 4.101562 7.203125 5.09375 8.078125 C 6.082031 8.953125 7.46875 9.390625 9.25 9.390625 Z M 9.25 9.390625 "/></g></g></g><g fill="#737373" fill-opacity="1"><g transform="translate(138.325067, 48.146326)"><g/></g></g><g fill="#737373" fill-opacity="1"><g transform="translate(146.602474, 48.146326)"><g><path d="M 4.8125 0 C 4.300781 0 4.125 -0.242188 4.28125 -0.734375 L 15.140625 -31.359375 C 15.304688 -31.878906 15.128906 -32.140625 14.609375 -32.140625 L 3.796875 -32.140625 C 3.273438 -32.140625 2.882812 -32.039062 2.625 -31.84375 C 2.363281 -31.644531 2.148438 -31.441406 1.984375 -31.234375 C 1.828125 -31.023438 1.617188 -30.921875 1.359375 -30.921875 C 1.097656 -30.921875 0.941406 -31.023438 0.890625 -31.234375 C 0.847656 -31.441406 0.859375 -31.675781 0.921875 -31.9375 L 1.65625 -34.46875 C 1.75 -34.863281 1.992188 -35.0625 2.390625 -35.0625 L 16.84375 -35.0625 C 17.300781 -35.0625 17.53125 -34.863281 17.53125 -34.46875 C 17.53125 -34.207031 17.398438 -33.671875 17.140625 -32.859375 L 6.71875 -0.53125 C 6.625 -0.175781 6.394531 0 6.03125 0 Z M 4.8125 0 "/></g></g></g><g fill="#737373" fill-opacity="1"><g transform="translate(164.325862, 48.146326)"><g><path d="M 1.84375 0 C 1.257812 0 0.96875 -0.210938 0.96875 -0.640625 C 0.96875 -0.859375 1.082031 -1.148438 1.3125 -1.515625 L 7.15625 -10.421875 C 9.59375 -14.117188 11.351562 -17.304688 12.4375 -19.984375 C 13.53125 -22.660156 14.078125 -25.117188 14.078125 -27.359375 C 14.078125 -29.367188 13.660156 -30.910156 12.828125 -31.984375 C 12.003906 -33.054688 10.8125 -33.59375 9.25 -33.59375 C 7.6875 -33.59375 6.269531 -33.046875 5 -31.953125 C 3.738281 -30.867188 2.929688 -29.144531 2.578125 -26.78125 C 2.484375 -26.257812 2.238281 -26 1.84375 -26 C 1.363281 -26 1.15625 -26.320312 1.21875 -26.96875 C 1.445312 -29.113281 2.003906 -30.8125 2.890625 -32.0625 C 3.785156 -33.3125 4.863281 -34.203125 6.125 -34.734375 C 7.394531 -35.273438 8.679688 -35.546875 9.984375 -35.546875 C 12.222656 -35.546875 14.046875 -34.867188 15.453125 -33.515625 C 16.867188 -32.171875 17.578125 -30.296875 17.578125 -27.890625 C 17.578125 -26.203125 17.175781 -24.472656 16.375 -22.703125 C 15.582031 -20.941406 14.492188 -19.015625 13.109375 -16.921875 C 11.734375 -14.828125 10.15625 -12.429688 8.375 -9.734375 L 4.578125 -4 C 4.378906 -3.695312 4.367188 -3.441406 4.546875 -3.234375 C 4.722656 -3.023438 4.976562 -2.921875 5.3125 -2.921875 L 10.515625 -2.921875 C 11.742188 -2.921875 12.765625 -3.054688 13.578125 -3.328125 C 14.390625 -3.609375 15.039062 -4.128906 15.53125 -4.890625 C 16.019531 -5.648438 16.394531 -6.742188 16.65625 -8.171875 L 17.09375 -10.46875 C 17.1875 -10.882812 17.425781 -11.09375 17.8125 -11.09375 C 18.269531 -11.09375 18.46875 -10.816406 18.40625 -10.265625 L 17.8125 -1.125 C 17.75 -0.375 17.347656 0 16.609375 0 Z M 1.84375 0 "/></g></g></g></g></g></svg>